<?xml version="1.0" standalone="no"?>
<!DOCTYPE svg PUBLIC "-//W3C//DTD SVG 20010904//EN"
 "http://www.w3.org/TR/2001/REC-SVG-20010904/DTD/svg10.dtd">
<svg version="1.0" xmlns="http://www.w3.org/2000/svg"
 width="1024.000000pt" height="1024.000000pt" viewBox="0 0 1024.000000 1024.000000"
 preserveAspectRatio="xMidYMid meet">
<metadata>
Created by potrace 1.14, written by Peter Selinger 2001-2017
</metadata>
<g transform="translate(0.000000,1024.000000) scale(0.100000,-0.100000)"
fill="#000000" stroke="none">
<path d="M1100 10173 c0 -38 4 -72 8 -78 4 -5 20 -11 37 -13 16 -2 32 -5 34
-7 2 -2 6 -33 8 -69 l6 -66 -67 0 c-37 0 -66 -4 -66 -10 0 -5 18 -10 40 -10
l40 0 0 -75 c0 -104 34 -189 83 -208 29 -11 21 -37 -13 -37 -16 0 -30 -3 -30
-7 0 -14 75 -93 88 -93 6 0 12 9 12 20 0 18 19 30 21 13 5 -39 4 -93 -3 -93
-4 0 -5 -7 -2 -15 6 -14 -17 -45 -33 -45 -9 0 -83 -82 -83 -92 0 -5 9 -8 20
-8 17 0 19 -3 10 -19 -5 -11 -10 -29 -10 -40 0 -10 -3 -21 -7 -23 -12 -5 -53
-84 -53 -102 0 -9 -4 -16 -10 -16 -5 0 -10 -9 -10 -20 0 -11 -4 -20 -10 -20
-5 0 -10 -18 -10 -40 0 -22 -4 -40 -10 -40 -13 0 -14 -182 -1 -195 13 -14 31
-141 31 -216 0 -59 2 -64 40 -101 27 -27 40 -48 40 -66 -1 -37 -22 -62 -54
-62 l-26 0 0 -160 0 -160 -80 0 -80 0 0 -75 0 -75 -74 0 c-81 0 -106 -6 -106
-24 0 -24 -58 -56 -100 -56 l-40 0 0 -125 0 -125 -80 0 -81 0 3 -82 c3 -79 4
-83 26 -81 14 2 22 -3 22 -12 0 -17 -46 -21 -52 -4 -5 14 -151 15 -156 0 -2
-6 -11 -11 -20 -11 -15 -1 -15 -3 2 -15 15 -12 16 -16 5 -20 -11 -4 -115 -1
-138 4 -2 1 -1 8 2 16 4 8 2 17 -3 20 -5 3 -12 -26 -16 -65 -3 -38 -11 -70
-15 -70 -5 0 -9 36 -9 80 0 47 -4 80 -10 80 -5 0 -10 -15 -10 -32 -1 -18 -2
-58 -4 -88 -7 -108 -16 -380 -22 -675 -3 -165 -8 -303 -12 -307 -4 -4 -6 239
-4 540 2 325 0 557 -6 572 -6 17 -11 -24 -14 -145 -8 -234 -22 -253 -29 -40
-5 159 -6 152 -9 -125 -5 -503 -5 -4190 0 -4670 l5 -455 4 315 4 315 7 -365
c4 -201 10 -473 13 -605 3 -132 2 -224 -2 -205 -6 28 -8 19 -10 -45 -1 -44 -2
-102 -2 -130 0 -27 -2 -70 -6 -95 -6 -43 -7 -43 -13 -15 -3 17 -4 -35 -2 -115
2 -80 8 -159 13 -175 5 -17 9 -68 9 -115 -1 -188 8 -349 23 -430 15 -79 33
-228 30 -257 0 -7 5 -13 13 -13 17 0 18 61 4 130 -35 167 -60 579 -48 775 5
66 11 500 14 965 3 465 9 1027 13 1250 6 313 8 354 9 180 1 -124 5 -556 9
-960 7 -679 7 -870 -2 -990 -13 -164 -15 -441 -5 -605 6 -104 12 -242 14 -305
3 -150 26 -290 47 -290 15 0 22 51 10 76 -13 30 -14 86 -2 100 5 5 11 25 14
44 4 33 4 33 5 -7 1 -24 7 -43 12 -43 6 0 10 -10 10 -21 0 -12 8 -28 18 -35
15 -11 17 -30 16 -141 0 -87 2 -110 6 -73 4 30 7 49 8 41 1 -7 8 -11 14 -8 9
3 12 -8 11 -39 l-2 -44 269 0 268 0 -3 113 c-6 181 -13 688 -9 617 9 -160 34
-672 34 -699 0 -29 2 -31 40 -31 l40 0 0 73 c0 48 3 67 10 57 7 -11 11 -9 19
13 6 16 12 38 12 50 2 35 28 -103 29 -150 l0 -43 160 0 c88 0 160 2 160 5 0 2
-5 26 -10 53 -7 32 -8 63 -1 91 13 59 -6 171 -30 171 -14 0 -18 14 -24 80 -5
58 -11 80 -21 80 -9 0 -14 11 -14 30 0 30 14 41 23 18 3 -7 6 15 6 50 1 48 4
62 16 62 12 0 15 16 15 80 l0 80 -59 0 -59 0 -4 92 c-1 52 -8 93 -13 95 -6 2
-9 19 -7 38 7 58 -6 105 -28 105 -24 0 -34 -35 -27 -96 2 -24 1 -47 -4 -50 -5
-3 -9 9 -9 27 0 18 -3 29 -7 25 -4 -4 -7 -82 -6 -174 l1 -167 -9 180 c-4 99
-5 239 0 310 4 72 4 143 -1 160 -13 47 -10 133 5 138 9 3 9 9 -1 27 -8 12 -9
19 -3 16 7 -4 8 39 5 131 -5 119 -3 147 15 203 18 60 20 62 20 27 1 -20 5 -36
9 -35 5 2 23 -7 39 -20 23 -17 29 -29 25 -45 -6 -24 -28 -42 -52 -42 -13 0
-16 -37 -22 -245 -8 -264 -5 -310 17 -310 14 0 21 37 16 78 -1 6 3 12 9 12 6
0 8 -6 4 -12 -5 -9 -2 -9 9 1 9 7 17 26 17 42 l0 29 68 0 c40 0 73 -5 80 -12
9 -9 12 -9 12 0 0 7 13 12 30 12 27 0 30 -3 30 -30 0 -25 4 -30 25 -30 14 0
25 5 25 10 0 6 -7 10 -15 10 -18 0 -19 14 -2 28 8 7 18 7 27 2 23 -14 30 -2
30 48 0 34 3 43 10 32 5 -8 10 -10 10 -5 0 6 5 2 11 -8 12 -20 32 -253 49
-552 26 -448 41 -618 66 -712 28 -108 28 -106 12 -97 -8 5 -9 2 -5 -10 4 -10
7 -19 7 -21 0 -1 55 -4 122 -4 90 -2 123 1 129 11 7 10 9 10 9 1 0 -10 174
-13 836 -13 l836 0 -6 80 c-3 44 -9 116 -12 160 l-6 80 31 0 31 0 0 -80 0 -80
44 0 c43 0 44 0 55 45 6 25 16 45 22 45 8 0 7 5 -1 15 -7 9 -10 18 -7 22 3 3
16 -11 28 -31 11 -20 25 -36 30 -36 5 0 9 -7 9 -15 0 -8 3 -14 8 -14 20 3 32
-2 32 -16 0 -8 9 -24 20 -35 11 -11 20 -27 20 -35 0 -8 7 -15 15 -15 11 0 14
-9 10 -36 -3 -28 -1 -35 10 -31 7 3 16 0 18 -7 7 -17 197 -23 197 -6 0 5 -4
10 -9 10 -13 0 -189 211 -238 285 -183 275 -393 765 -508 1182 -70 254 -97
400 -67 358 10 -14 117 -95 192 -145 36 -24 115 -80 175 -125 61 -44 151 -105
200 -135 214 -128 541 -341 602 -392 23 -20 80 -57 125 -83 281 -161 651 -439
878 -661 103 -100 299 -257 356 -284 22 -11 51 -20 64 -20 21 0 11 14 -70 95
l-94 94 40 -6 c83 -13 244 -85 334 -149 44 -31 55 -35 102 -32 42 3 49 5 33
13 -11 5 -39 22 -61 37 -23 15 -46 28 -51 28 -6 0 -41 22 -79 49 -62 44 -77
61 -148 177 -44 71 -117 189 -163 261 -46 73 -86 139 -89 147 -3 8 10 25 32
43 21 15 48 38 62 51 l25 24 46 -33 c109 -77 267 -219 517 -466 88 -87 205
-194 260 -238 54 -44 101 -83 102 -87 5 -12 82 -10 82 2 0 6 -6 10 -13 10 -8
0 -79 64 -158 142 -79 79 -173 168 -208 198 -36 30 -76 68 -90 85 -14 16 -56
61 -93 100 -94 98 -108 116 -102 127 3 4 2 8 -3 7 -17 -5 -61 24 -74 47 -7 13
-16 24 -21 24 -5 0 -6 -5 -2 -12 4 -7 3 -8 -4 -4 -6 4 -8 14 -5 23 5 12 2 15
-10 10 -9 -3 -16 -3 -16 1 3 18 -2 26 -10 14 -7 -11 -9 -11 -14 2 -4 9 -2 16
3 16 6 0 10 4 10 9 0 6 -9 8 -20 6 -31 -6 -175 143 -156 162 8 8 27 -8 21 -18
-4 -5 -2 -9 4 -9 5 0 13 5 16 10 10 16 23 12 21 -7 0 -10 5 -17 12 -15 6 1 12
-3 12 -9 0 -8 4 -8 14 0 17 14 56 -1 56 -21 0 -6 3 -8 6 -5 4 4 1 13 -6 22
-10 13 -9 15 8 15 11 0 25 6 31 14 9 11 5 16 -19 26 -31 13 -37 24 -20 35 6 3
10 1 10 -4 0 -6 9 -11 19 -11 11 0 27 -10 36 -22 10 -13 19 -18 21 -12 3 6 21
10 42 8 20 -2 31 -1 25 2 -7 3 -13 10 -13 15 0 4 26 -5 57 -21 58 -30 100 -42
53 -15 -41 23 0 16 55 -10 28 -13 42 -24 33 -24 -10 -1 -18 -5 -18 -11 0 -13
23 -13 36 0 6 6 15 6 24 0 11 -7 11 -10 2 -10 -7 0 -11 -4 -7 -10 3 -5 12 -7
20 -3 19 7 147 -56 139 -68 -3 -5 1 -7 8 -4 7 3 36 -9 63 -25 28 -16 44 -30
37 -30 -7 0 -10 -5 -7 -10 5 -7 11 -8 19 -1 8 6 19 3 36 -9 14 -11 31 -20 38
-20 6 0 12 -4 12 -8 0 -4 16 -14 35 -21 21 -7 33 -17 29 -23 -4 -7 -2 -8 4 -4
15 9 115 -42 107 -54 -3 -5 0 -7 8 -4 15 5 113 -41 151 -70 18 -14 17 -17 -4
-83 -26 -80 -70 -177 -82 -181 -4 -2 -8 -8 -8 -13 0 -6 -9 -20 -21 -32 -18
-20 -69 -115 -69 -130 0 -3 -11 -23 -25 -43 -14 -20 -25 -41 -25 -45 0 -14 98
-11 103 4 4 10 6 10 6 0 1 -10 31 -13 115 -13 127 0 120 -4 131 76 4 27 9 60
12 74 3 14 4 88 3 165 -3 190 -2 180 -16 161 -15 -22 -23 -20 -34 7 -6 16 -9
3 -10 -53 -2 -101 -18 -138 -21 -50 -1 36 -2 89 -2 117 1 29 -3 53 -9 53 -5 0
-33 15 -61 34 -29 18 -99 58 -157 88 -260 137 -305 164 -303 177 2 5 -4 8 -12
4 -9 -3 -32 5 -53 18 -20 13 -54 33 -75 43 -20 11 -37 24 -37 29 0 6 -3 8 -6
4 -4 -3 -25 6 -48 22 -22 15 -70 42 -106 61 -36 18 -77 41 -92 51 -14 11 -33
19 -41 19 -9 0 -17 4 -19 8 -1 5 -30 23 -63 41 -107 58 -194 115 -189 123 3 4
0 8 -5 8 -6 0 -11 4 -11 9 0 5 9 7 20 4 11 -3 20 -11 20 -18 0 -6 11 -17 24
-23 19 -9 27 -8 37 4 9 11 15 11 25 3 8 -6 20 -9 29 -6 8 4 17 2 19 -2 3 -5
26 -14 51 -21 25 -7 48 -17 51 -21 3 -5 14 -9 25 -9 11 0 22 -7 25 -15 4 -8
13 -15 21 -15 34 0 133 -58 133 -77 0 -15 36 -23 48 -11 9 9 67 -14 82 -33 3
-4 30 -19 60 -34 30 -15 64 -35 75 -45 11 -10 30 -21 43 -25 12 -3 22 -11 22
-16 0 -5 13 -9 29 -9 16 0 34 -6 40 -14 7 -8 23 -17 36 -20 14 -4 25 -11 25
-16 0 -5 15 -15 33 -23 131 -57 305 -77 326 -39 7 13 6 23 -2 32 -10 10 -7 11
14 6 28 -6 52 11 47 34 -2 6 5 17 15 23 14 10 20 9 27 -3 7 -11 10 -3 10 27 0
32 -3 41 -14 37 -8 -3 -17 -1 -21 5 -3 7 2 11 14 11 16 0 19 5 16 30 -4 30 9
42 18 18 3 -7 3 5 0 27 -4 36 -3 38 10 23 23 -29 34 -21 35 24 2 68 17 132 40
172 12 21 22 43 22 51 0 7 7 16 16 19 8 3 12 10 9 16 -3 5 3 10 13 10 11 0 22
7 26 15 3 8 12 15 21 15 8 0 15 5 15 10 0 6 -7 10 -15 10 -16 0 -31 43 -20 59
3 6 12 11 18 11 7 0 17 10 22 22 6 13 15 23 22 23 6 0 15 3 19 8 4 4 1 7 -6 7
-10 0 -9 5 3 18 24 26 23 107 0 121 -17 10 -17 10 0 11 12 0 17 6 15 18 -2 9
-10 16 -17 14 -7 -1 -10 2 -7 7 3 5 14 8 24 6 9 -2 24 -4 32 -5 11 -1 11 -3 2
-7 -24 -9 0 -23 41 -23 63 0 87 9 87 33 0 11 3 18 6 14 12 -12 -6 -57 -24 -58
-10 0 -12 -3 -4 -6 16 -6 15 -39 -4 -99 -26 -80 -27 -81 -33 -49 l-6 29 -19
-29 c-16 -24 -16 -27 -2 -22 10 4 16 1 16 -9 0 -8 3 -13 8 -11 4 3 5 -15 3
-40 -2 -25 -6 -41 -10 -35 -3 5 -7 -27 -8 -71 -1 -48 -6 -83 -12 -85 -6 -2
-11 -10 -11 -18 0 -8 -4 -14 -10 -14 -5 0 -10 -4 -10 -10 0 -5 8 -7 18 -4 16
5 16 5 0 -6 -10 -6 -18 -22 -18 -35 0 -15 -6 -25 -14 -25 -10 0 -12 -7 -8 -22
3 -14 2 -19 -7 -14 -8 5 -10 -8 -7 -51 4 -38 3 -48 -2 -28 l-8 30 -6 -40 c-4
-22 -7 -71 -7 -108 -1 -77 -22 -187 -52 -274 -28 -81 -57 -194 -75 -287 -9
-44 -22 -92 -30 -107 -8 -16 -14 -44 -14 -64 0 -30 3 -35 18 -31 15 5 17 -2
19 -47 1 -39 -1 -46 -7 -27 -8 24 -8 24 -9 -7 -1 -44 14 -49 33 -10 l16 32 -6
-52 -7 -53 172 0 c182 0 189 2 159 49 -9 14 -6 34 15 98 31 91 34 123 12 123
-8 0 -15 9 -15 20 0 28 30 113 44 125 6 6 17 30 25 55 7 25 16 59 21 75 5 17
11 46 15 65 4 19 12 40 17 47 5 7 7 16 4 21 -8 13 22 110 45 148 10 17 19 38
19 46 0 8 11 37 25 64 14 27 27 58 29 69 3 11 16 48 31 83 14 35 32 107 40
160 8 53 23 126 34 162 12 36 21 92 21 125 0 33 5 67 10 75 13 20 13 19 -5
-585 -9 -280 -20 -550 -25 -600 -18 -167 -31 -248 -45 -283 -10 -23 -13 -51
-9 -88 l7 -54 86 0 86 0 -9 267 c-6 192 -5 358 5 588 7 176 13 458 13 627 1
168 3 309 6 312 8 7 183 24 190 19 3 -3 6 -221 7 -486 4 -735 14 -1327 24
-1327 5 0 9 24 10 53 l1 52 13 -30 c8 -16 14 -40 15 -52 0 -19 6 -23 29 -23
20 0 31 6 34 17 4 17 5 17 6 0 1 -16 10 -17 84 -15 l82 3 5 45 c3 25 8 44 13
42 12 -4 57 9 57 17 0 4 38 32 85 62 47 29 85 60 85 66 0 7 9 13 19 13 11 0
23 5 26 10 10 17 35 11 35 -8 0 -15 6 -18 31 -14 19 3 26 8 19 12 -8 5 -7 9 5
14 9 3 21 4 26 1 5 -4 25 1 44 11 35 16 46 39 23 46 -9 3 -9 6 0 12 7 4 12 3
12 -1 0 -5 18 -7 40 -5 39 4 40 5 40 43 l0 39 120 0 c73 0 120 -4 120 -10 0
-6 30 -10 71 -10 44 0 68 4 64 10 -3 6 1 13 9 16 9 3 16 16 16 29 0 21 -5 23
-80 30 l-80 7 0 44 0 44 80 0 c44 0 80 4 80 9 0 5 71 12 159 16 l158 7 7 62
c3 33 9 114 13 178 5 89 9 118 20 118 9 0 13 17 13 63 0 76 16 264 19 222 1
-16 6 -39 11 -50 6 -15 9 -9 9 27 1 56 9 78 27 78 9 0 14 11 14 31 0 17 4 28
10 24 6 -3 10 -21 10 -38 0 -22 3 -28 9 -18 20 31 25 -27 30 -334 6 -346 18
-313 20 55 2 289 13 572 23 562 4 -4 8 -39 9 -78 0 -38 5 -116 10 -174 18
-182 19 -210 9 -210 -15 0 -12 -97 2 -103 10 -4 10 -8 -1 -15 -12 -9 -12 -13
3 -27 26 -27 42 -11 49 47 10 82 8 170 -3 163 -5 -3 -10 -1 -10 4 0 6 5 11 10
11 16 0 14 1658 -3 1693 -22 49 -34 31 -40 -60 -4 -64 -9 -88 -21 -95 -11 -6
-17 -25 -18 -56 -3 -108 -15 111 -17 311 -1 173 -3 207 -15 207 -12 0 -15 -32
-15 -197 -1 -108 -3 -198 -6 -201 -3 -3 -5 54 -5 127 0 86 -4 130 -10 126 -5
-3 -10 -16 -10 -28 0 -15 -3 -18 -11 -10 -5 5 -9 37 -7 69 3 50 6 59 21 56 13
-2 17 4 17 28 0 19 -4 29 -10 25 -23 -14 -40 17 -40 72 0 46 -3 56 -20 60 -11
3 -20 9 -20 14 0 5 -7 9 -15 9 -9 0 -15 9 -15 23 0 36 -12 68 -23 64 -6 -2
-15 -17 -21 -35 -11 -31 -11 -31 -34 -13 -15 11 -23 26 -21 42 5 55 -1 89 -16
89 -12 0 -15 12 -14 58 2 78 -9 176 -21 180 -6 2 -10 21 -10 43 0 28 4 39 15
39 8 0 15 4 15 10 0 5 7 7 15 4 13 -5 15 17 15 167 0 183 -4 219 -25 219 -7 0
-16 -10 -19 -22 l-7 -23 -11 23 c-7 13 -17 21 -25 18 -8 -3 -12 -2 -9 3 6 9
-30 51 -45 51 -5 0 -19 -19 -29 -43 -17 -36 -20 -66 -20 -224 0 -116 4 -183
10 -183 6 0 9 -25 8 -57 l-1 -58 -7 50 -6 50 -5 -45 -6 -45 -1 53 c-2 39 -6
52 -17 52 -13 0 -15 25 -15 161 l0 160 -69 -2 c-47 -1 -74 3 -86 12 -34 28
-65 62 -60 67 2 2 0 13 -5 23 -11 19 6 40 19 23 9 -14 73 -45 79 -40 3 3 7 28
10 56 4 40 2 50 -11 50 -8 0 -17 -6 -20 -12 -3 -7 -4 3 -3 22 0 19 5 38 9 41
4 3 4 39 -1 80 -6 46 -10 60 -11 37 0 -21 -5 -38 -11 -38 -9 0 -16 321 -12
570 l1 75 -9 -57 c-21 -130 -28 -128 -29 7 -1 139 -8 186 -22 163 -5 -7 -9
-87 -10 -178 -2 -194 -17 -162 -20 40 0 69 -5 152 -9 185 l-7 60 -2 -50 c-2
-38 -4 -45 -11 -30 -5 11 -9 33 -9 49 -1 21 -5 27 -16 22 -12 -4 -15 0 -14 17
5 54 -1 87 -16 87 -17 0 -22 65 -5 75 13 8 13 102 0 110 -5 3 -10 30 -10 58 0
37 -3 48 -10 37 -5 -8 -10 -76 -11 -150 l-2 -135 -7 150 c-4 83 -3 158 1 167
19 35 3 80 -16 48 -4 -6 -14 -9 -23 -8 -15 3 -17 -9 -18 -97 0 -88 0 -90 3
-17 2 45 8 82 13 82 12 0 1 -139 -13 -168 -10 -22 -12 -22 -18 -5 -4 10 -8 52
-9 93 -1 78 -9 112 -25 111 -6 -1 -13 43 -16 96 l-5 98 -2 -107 c-1 -60 -5
-108 -9 -108 -14 0 -39 20 -25 20 6 0 12 5 12 10 0 6 -7 10 -15 10 -12 0 -15
13 -15 55 0 42 3 55 15 55 17 0 18 4 6 28 -23 44 -34 79 -34 105 0 20 -5 27
-19 27 -14 0 -17 4 -11 18 5 9 8 39 7 65 -1 37 -6 52 -23 64 -30 21 -51 10
-51 -27 0 -28 -2 -30 -20 -20 -27 15 -27 60 0 60 17 0 20 7 20 40 0 22 -4 40
-10 40 -5 0 -10 -7 -10 -15 0 -35 -70 18 -71 55 l-1 25 -8 -25 c-5 -14 -6 17
-4 75 2 63 1 91 -5 75 -6 -18 -10 -21 -14 -10 -8 23 -18 86 -29 185 -5 50 -10
99 -12 110 -12 73 -64 113 -161 124 l-50 6 -3 200 -2 200 30 17 c25 14 30 24
31 58 1 22 3 45 4 50 1 6 3 19 4 31 0 11 5 18 10 14 5 -3 12 -1 16 5 3 5 1 10
-4 10 -6 0 -11 11 -11 25 0 14 5 25 11 25 20 0 47 40 42 60 -6 21 -23 18 -23
-5 0 -14 -50 -75 -62 -75 -15 0 -8 16 21 47 32 35 32 78 1 88 -30 10 -45 34
-30 48 10 9 11 9 6 0 -5 -9 0 -13 13 -13 22 0 30 19 9 21 -47 5 -57 7 -68 14
-8 5 -11 4 -6 -3 3 -6 1 -14 -5 -18 -8 -4 -9 -3 -5 4 10 16 -27 32 -71 31 -31
0 -35 -2 -18 -10 16 -7 13 -8 -10 -3 -52 11 -75 11 -69 3 3 -5 -2 -9 -11 -9
-9 0 -14 4 -11 9 4 5 1 11 -5 13 -5 2 -13 22 -16 44 -5 37 -3 40 18 40 92 0
109 4 109 23 0 18 9 20 85 23 77 3 85 1 85 -15 0 -14 5 -17 20 -12 13 4 20 2
20 -6 0 -8 3 -9 9 -4 11 12 18 66 9 80 -10 17 -3 79 12 109 16 32 71 58 78 38
5 -15 43 -16 40 -1 -2 6 3 14 10 16 6 3 12 -2 12 -11 0 -9 3 -16 8 -16 6 0 8
11 13 68 3 30 -20 155 -29 161 -4 3 -9 24 -10 46 -2 22 -7 56 -12 75 -5 19
-12 77 -16 127 -3 51 -10 91 -14 88 -10 -6 -40 62 -40 93 0 16 -9 68 -21 118
-11 49 -22 105 -25 124 -3 19 -13 51 -23 70 -10 19 -24 58 -31 87 -8 29 -18
50 -22 46 -5 -3 -12 4 -15 16 -5 19 -13 21 -74 21 l-69 0 0 30 c0 28 2 30 43
31 38 1 39 2 12 8 -21 4 -31 13 -33 28 -2 16 -12 23 -43 28 -30 5 -39 11 -35
22 4 11 2 13 -9 9 -9 -3 -15 0 -15 8 0 8 -8 16 -17 20 -10 3 -24 9 -31 12 -7
3 -12 -1 -12 -10 0 -20 -48 -22 -56 -2 -3 8 -23 27 -45 42 -22 15 -38 33 -35
40 8 21 -19 92 -43 113 -14 12 -32 19 -41 16 -14 -4 -18 3 -22 38 -3 24 -19
74 -37 111 -17 36 -31 71 -31 76 0 6 -7 10 -15 10 -11 0 -15 11 -15 40 l0 40
-40 0 c-22 0 -40 -4 -40 -8 0 -7 -175 -32 -220 -32 -8 0 -20 10 -25 23 l-11
22 118 -3 c104 -3 118 -2 118 13 0 30 -28 70 -93 132 -62 60 -104 82 -127 68
-7 -4 -9 1 -5 18 5 20 2 26 -19 31 -16 4 -28 16 -32 31 l-6 25 -789 0 -788 0
-4 -82 -3 -83 -2 83 c-2 75 -4 82 -22 82 -18 0 -20 -7 -20 -67 -1 -40 -7 -78
-15 -93 -8 -15 -14 -53 -15 -92 0 -39 -4 -68 -10 -68 -13 0 -13 -285 0 -310
11 -21 2 -110 -11 -110 -5 0 -10 15 -10 33 -1 20 -5 9 -11 -30 l-10 -63 -39 0
c-39 0 -39 0 -39 -40 0 -39 -1 -40 -35 -40 -34 0 -35 1 -35 41 l0 41 -92 -3
-93 -3 -5 74 c-5 69 -7 75 -27 75 -11 0 -25 3 -29 8 -4 4 -18 7 -31 7 -23 0
-24 3 -22 46 2 29 -2 48 -10 54 -8 4 -13 19 -13 34 0 15 -6 26 -14 26 -9 0
-14 20 -16 73 -3 66 -5 72 -25 72 -11 0 -25 3 -29 8 -4 4 -22 7 -40 7 -42 0
-47 15 -35 110 10 76 5 130 -10 130 -5 0 -9 15 -9 34 0 19 -4 38 -10 41 -7 4
-10 -48 -10 -150 0 -104 -3 -154 -10 -150 -7 4 -9 62 -8 156 l3 149 -252 0
-253 0 0 -32 c-1 -85 -22 -408 -35 -534 -40 -385 -62 -502 -116 -632 -22 -55
-39 -111 -39 -133 0 -22 -4 -39 -10 -39 -5 0 -10 5 -10 11 0 24 -63 37 -135
28 -102 -13 -113 -17 -136 -44 -22 -24 -41 -24 -67 2 -24 23 -61 16 -68 -13
-4 -14 -2 -30 5 -37 14 -14 14 -30 0 -21 -8 5 -8 1 0 -14 6 -11 11 -24 11 -27
0 -10 -26 19 -32 35 -3 8 -5 -1 -4 -21 1 -27 5 -35 15 -31 10 4 13 1 8 -11 -3
-9 -3 -17 2 -17 12 0 32 50 25 63 -4 7 6 1 22 -13 16 -14 31 -27 34 -29 3 -2
-5 0 -17 3 -12 4 -24 3 -27 -2 -3 -5 12 -8 34 -6 23 2 40 -1 40 -7 0 -6 10
-10 23 -9 12 1 31 2 41 1 19 -1 19 -1 0 -22 -25 -28 -72 -52 -90 -45 -20 8
-12 -17 10 -30 16 -9 13 -12 -25 -22 -24 -7 -73 -13 -109 -14 l-65 -3 -3 -47
c-2 -27 -7 -48 -11 -48 -5 0 -6 -11 -3 -25 3 -17 11 -25 26 -26 11 0 32 -2 46
-3 13 -2 69 3 125 10 125 17 197 17 230 2 22 -10 28 -9 36 3 20 32 7 -7 -21
-63 -16 -32 -30 -65 -30 -72 0 -17 -79 -25 -263 -29 -98 -1 -131 -5 -140 -16
-10 -12 -9 -13 3 -7 8 4 5 -1 -7 -10 -28 -20 -29 -34 -4 -34 28 0 35 -28 8
-32 -17 -2 -24 -12 -29 -43 -15 -85 -21 -105 -28 -105 -4 0 -10 10 -13 21 -4
15 -11 20 -23 15 -11 -4 -22 1 -31 14 -18 26 -26 25 -38 -2 -10 -22 -25 -32
-97 -64 -54 -23 -155 -15 -243 20 -86 34 -104 53 -236 252 -26 39 -68 91 -94
117 -56 54 -93 65 -262 74 -62 3 -113 10 -113 16 0 5 -5 5 -13 -1 -9 -8 -16
-6 -25 8 -12 20 -33 91 -35 123 -1 9 -5 17 -9 17 -9 0 -12 22 -32 205 -21 190
-29 402 -18 505 5 49 10 68 11 45 1 -30 4 -36 11 -25 8 12 10 12 11 -5 0 -11
3 -14 6 -7 10 25 19 11 17 -28 -1 -29 2 -40 12 -40 8 0 14 -6 14 -14 0 -8 5
-16 12 -18 6 -2 12 -28 14 -59 1 -29 3 -57 3 -62 1 -4 12 -17 26 -29 22 -19
25 -30 25 -85 l0 -63 65 0 65 0 0 -115 c0 -66 -5 -125 -12 -140 -10 -22 -9
-28 8 -40 11 -9 35 -14 58 -12 36 2 41 6 69 57 16 30 33 57 38 58 5 2 9 10 9
18 0 8 7 14 15 14 8 0 15 4 15 8 0 5 11 14 25 20 23 10 25 17 25 72 0 57 1 60
24 60 14 0 27 -4 30 -9 3 -5 26 -12 52 -16 82 -12 112 -55 89 -131 -7 -25 -11
-53 -8 -62 7 -19 42 -52 55 -52 4 0 6 -11 2 -25 -5 -20 -2 -25 12 -25 9 0 14
-3 11 -7 -9 -9 22 -43 40 -43 7 0 13 -4 13 -10 0 -5 7 -10 15 -10 22 0 37 37
30 73 -6 30 -5 31 9 13 9 -11 17 -18 19 -15 11 12 28 233 29 364 0 127 -3 158
-20 205 -21 58 -28 100 -42 246 -4 50 -15 105 -24 122 -9 17 -16 47 -16 66 0
33 -3 36 -42 47 -24 6 -51 15 -60 20 -10 5 -27 9 -38 9 -11 0 -37 7 -58 16
-20 10 -46 16 -57 15 -19 -3 -19 -2 2 18 12 12 29 21 37 21 9 0 23 11 32 25
14 21 14 30 4 55 -13 32 -6 85 10 75 6 -3 7 1 4 9 -4 11 0 16 11 16 9 0 19 9
22 20 3 11 10 20 16 20 14 0 36 32 37 52 0 11 5 15 15 12 11 -5 14 0 13 17 -2
18 5 27 35 41 20 10 37 22 37 26 0 8 29 22 108 52 64 25 44 31 -102 29 -112
-1 -146 -4 -146 -14 0 -7 -7 -15 -15 -19 -8 -3 -15 -14 -15 -25 0 -11 -4 -22
-9 -26 -6 -3 -45 -47 -87 -98 -43 -51 -80 -94 -84 -97 -3 -3 -23 -28 -43 -57
-96 -132 -170 -200 -198 -182 -12 8 -12 11 1 19 13 9 12 10 -4 8 -26 -4 -32
49 -6 57 10 3 21 16 24 28 10 40 141 181 158 171 6 -4 8 -3 5 3 -7 11 132 149
145 145 5 -1 7 2 4 7 -3 5 8 21 25 35 30 26 56 35 44 16 -3 -5 -2 -10 4 -10 5
0 9 9 8 20 -1 20 -8 20 -309 20 -169 0 -308 -3 -308 -7 0 -5 14 -22 30 -40 17
-18 30 -38 30 -44 0 -7 -10 -2 -22 11 -20 21 -23 22 -26 7 -4 -19 -60 -24 -77
-8 -6 5 -21 11 -34 13 -22 3 -22 4 8 15 22 8 33 8 38 1 3 -7 1 -8 -5 -4 -7 4
-12 2 -12 -4 0 -7 8 -9 21 -5 15 5 19 4 15 -4 -10 -16 0 -13 18 5 9 8 16 23
15 32 0 12 -3 10 -10 -6 -5 -13 -14 -20 -20 -17 -7 5 -5 13 5 24 9 10 16 20
16 24 0 10 -388 8 -395 -3 -3 -5 -11 -10 -16 -10 -6 0 -8 4 -4 10 3 6 -219 9
-605 10 l-610 0 0 -67z m1573 36 c-7 -7 -33 -13 -60 -14 -27 -1 -32 0 -13 2
19 2 39 9 45 14 5 5 16 9 24 9 11 0 12 -3 4 -11z m123 -16 c-7 -7 -26 7 -26
19 0 6 6 6 15 -2 9 -7 13 -15 11 -17z m21 -75 c-3 -7 -5 -2 -5 12 0 14 2 19 5
13 2 -7 2 -19 0 -25z m2393 -6 c0 -15 -5 -34 -10 -42 -7 -11 -10 -2 -10 33 0
30 4 46 10 42 6 -3 10 -18 10 -33z m-2388 -76 c-27 -28 -73 -90 -102 -139 -47
-79 -73 -107 -97 -107 -4 0 -3 4 2 8 30 22 58 139 46 192 -4 19 -11 46 -15 60
-6 19 -5 21 3 10 6 -8 14 -15 18 -16 28 -2 73 -17 73 -25 0 -5 5 -9 12 -9 9 0
9 3 0 12 -18 18 -14 31 7 25 13 -3 18 0 15 8 -3 7 -1 16 5 20 6 3 11 1 11 -4
0 -14 41 8 54 29 8 11 10 12 14 1 2 -7 -18 -36 -46 -65z m-47 54 c3 -5 1 -10
-4 -10 -6 0 -11 5 -11 10 0 6 2 10 4 10 3 0 8 -4 11 -10z m2032 -32 c-3 -7 -5
-2 -5 12 0 14 2 19 5 13 2 -7 2 -19 0 -25z m100 0 c-3 -7 -5 -2 -5 12 0 14 2
19 5 13 2 -7 2 -19 0 -25z m2710 -12 c-4 -9 -11 -16 -17 -16 -11 0 -14 33 -3
44 11 10 26 -11 20 -28z m-4694 -63 c-5 -12 -2 -15 10 -10 10 4 20 0 26 -11 6
-9 11 -13 11 -9 0 5 4 6 10 2 11 -7 -19 -45 -36 -45 -7 0 -26 8 -43 17 l-30
18 26 27 c31 32 35 34 26 11z m93 -11 c-18 -16 -18 -16 -6 6 6 13 14 21 18 18
3 -4 -2 -14 -12 -24z m-839 -125 c-2 -23 -3 -1 -3 48 0 50 1 68 3 42 2 -26 2
-67 0 -90z m120 51 c-2 -13 -4 -3 -4 22 0 25 2 35 4 23 2 -13 2 -33 0 -45z
m260 40 c-3 -8 -6 -5 -6 6 -1 11 2 17 5 13 3 -3 4 -12 1 -19z m2313 -3 c0 -8
-4 -15 -10 -15 -5 0 -7 7 -4 15 4 8 8 15 10 15 2 0 4 -7 4 -15z m-1604 -33
c-6 -17 -40 -66 -76 -110 -6 -7 -8 -17 -5 -22 3 -6 2 -10 -3 -10 -5 0 -21 -18
-36 -40 -16 -24 -34 -40 -46 -40 -11 0 -20 -4 -20 -8 0 -5 -11 -14 -25 -20
-14 -6 -25 -18 -25 -27 0 -8 -17 -22 -37 -32 -79 -35 -77 -35 -63 -18 7 9 15
13 18 10 3 -3 12 4 19 15 10 14 21 19 34 15 16 -5 20 -3 17 11 -2 10 6 23 17
28 34 19 76 59 123 121 26 33 50 62 54 63 4 2 8 8 8 13 0 12 44 79 48 74 2 -2
1 -12 -2 -23z m2726 -148 c2 -91 0 -168 -3 -170 -16 -9 -19 21 -19 173 0 218
18 216 22 -3z m-3672 17 c0 -15 5 -21 13 -18 10 4 13 -2 9 -19 -6 -32 4 -30
23 4 9 15 13 18 10 7 -16 -50 -15 -71 6 -95 13 -16 19 -19 15 -8 -3 12 -1 15
9 12 8 -3 14 -9 13 -12 -5 -16 25 -53 37 -48 10 3 12 0 8 -12 -6 -15 -5 -16
13 -2 17 14 18 14 6 -1 -11 -15 -8 -18 25 -27 26 -7 31 -10 15 -11 -84 -4
-196 132 -226 274 l-6 30 15 -25 c8 -14 14 -36 15 -49z m184 33 c3 -8 2 -12
-4 -9 -6 3 -10 10 -10 16 0 14 7 11 14 -7z m751 -14 c-10 -11 -23 -20 -28 -20
-6 0 -2 9 8 20 10 11 23 20 28 20 6 0 2 -9 -8 -20z m-1068 -22 c-3 -8 -6 -5
-6 6 -1 11 2 17 5 13 3 -3 4 -12 1 -19z m203 -89 c0 -6 -4 -7 -10 -4 -5 3 -10
11 -10 16 0 6 5 7 10 4 6 -3 10 -11 10 -16z m491 -12 c-10 -9 -11 -8 -5 6 3
10 9 15 12 12 3 -3 0 -11 -7 -18z m3136 -49 c-2 -13 -4 -3 -4 22 0 25 2 35 4
23 2 -13 2 -33 0 -45z m-1100 20 c-3 -8 -6 -5 -6 6 -1 11 2 17 5 13 3 -3 4
-12 1 -19z m-2015 -90 c-6 -7 -25 -22 -44 -32 -39 -23 -32 -13 14 20 38 26 45
29 30 12z m-136 -83 c-20 -14 -42 -24 -49 -22 -7 1 -14 -11 -16 -28 l-4 -30
-6 30 c-6 28 -4 31 44 52 67 28 75 28 31 -2z m-226 -34 c0 -5 -9 -7 -20 -4
-11 3 -20 7 -20 9 0 2 9 4 20 4 11 0 20 -4 20 -9z m3408 -18 c-4 -39 -28 -42
-28 -4 0 21 5 31 16 31 11 0 14 -8 12 -27z m2109 -45 c-3 -8 -6 -5 -6 6 -1 11
2 17 5 13 3 -3 4 -12 1 -19z m401 -85 c-15 -2 -42 -2 -60 0 -18 2 -6 4 27 4
33 0 48 -2 33 -4z m-3753 -193 c-4 -12 -1 -27 5 -35 8 -10 10 -32 6 -65 -6
-48 -5 -51 16 -49 47 4 58 0 55 -22 -1 -12 4 -24 11 -26 9 -3 12 13 13 59 1
35 4 50 6 33 2 -16 10 -70 18 -120 8 -49 22 -135 30 -190 17 -111 34 -203 59
-315 12 -50 14 -76 7 -78 -6 -2 -11 -14 -11 -26 0 -26 -157 -219 -171 -211 -5
4 -9 0 -9 -7 0 -22 -60 -89 -73 -81 -7 3 -9 3 -5 -2 8 -8 -1 -23 -45 -75 l-28
-33 -29 34 c-33 39 -55 93 -44 110 4 7 3 9 -3 6 -9 -6 -25 33 -37 94 -7 30 17
194 36 253 7 24 40 69 80 112 36 40 74 86 82 103 20 38 20 85 1 101 -27 22
-18 43 15 38 22 -3 27 -1 20 7 -8 9 -4 11 14 8 21 -4 24 -2 19 16 -3 12 -9 21
-14 21 -5 0 -9 9 -9 20 0 11 -5 20 -11 20 -5 0 -7 5 -3 12 10 16 6 68 -6 83
-5 6 -7 32 -6 58 4 46 -6 62 -18 31 -4 -9 -1 -23 5 -30 9 -11 8 -18 -1 -29 -6
-8 -8 -20 -4 -27 6 -11 5 -11 -8 0 -14 11 -17 10 -24 -10 -4 -13 -7 -29 -5
-37 1 -8 -2 -10 -9 -6 -8 5 -10 1 -6 -11 3 -11 -3 -29 -14 -41 -23 -28 -34
-30 -20 -3 6 11 20 49 31 84 13 45 24 64 33 60 9 -3 14 5 15 25 0 17 2 45 2
63 l2 31 14 -26 c7 -15 16 -27 18 -27 10 0 -3 64 -13 68 -8 2 -8 10 0 28 14
29 22 32 13 4z m1155 -96 c0 -27 -4 -34 -20 -34 -15 0 -20 7 -20 25 0 27 20
56 33 48 4 -2 7 -20 7 -39z m-4634 -31 c-11 -11 -17 4 -9 23 7 18 8 18 11 1 2
-10 1 -21 -2 -24z m-66 -41 c0 -21 9 -55 20 -77 11 -22 20 -50 20 -63 0 -25
-29 -82 -42 -82 -13 0 -57 171 -58 228 0 29 3 32 30 32 28 0 30 -2 30 -38z
m1825 -48 c-9 -9 -19 -13 -23 -10 -3 4 0 11 8 16 24 15 33 11 15 -6z m1418
-141 c-7 -2 -19 -2 -25 0 -7 3 -2 5 12 5 14 0 19 -2 13 -5z m-60 -10 c-7 -2
-19 -2 -25 0 -7 3 -2 5 12 5 14 0 19 -2 13 -5z m304 -28 c0 -8 -4 -12 -9 -9
-5 3 -6 10 -3 15 9 13 12 11 12 -6z m-172 -115 c-11 -5 -42 -9 -70 -9 -37 0
-45 3 -30 9 11 5 43 9 70 9 37 0 45 -3 30 -9z m542 -132 c-3 -8 -6 -5 -6 6 -1
11 2 17 5 13 3 -3 4 -12 1 -19z m-930 -215 c3 -9 -4 -10 -28 -3 -45 13 -50 22
-10 18 19 -2 36 -8 38 -15z m4106 10 c-7 -2 -19 -2 -25 0 -7 3 -2 5 12 5 14 0
19 -2 13 -5z m187 -23 c11 -7 2 -10 -32 -10 -27 0 -48 5 -48 10 0 13 60 13 80
0z m-3393 -72 c-3 -8 -6 -5 -6 6 -1 11 2 17 5 13 3 -3 4 -12 1 -19z m3081 2
c17 -11 32 -24 32 -29 0 -16 -43 -41 -71 -41 -25 0 -27 4 -31 45 -3 40 -1 45
17 45 11 0 35 -9 53 -20z m560 -7 c-5 -26 -38 -29 -38 -4 0 15 6 21 21 21 14
0 19 -5 17 -17z m-4484 -19 c5 -14 4 -15 -9 -4 -17 14 -19 20 -6 20 5 0 12 -7
15 -16z m3889 -61 c-7 -2 -19 -2 -25 0 -7 3 -2 5 12 5 14 0 19 -2 13 -5z
m-3668 -143 c-12 -38 -109 -93 -188 -106 -84 -15 -260 -3 -347 22 -30 9 -77
22 -105 29 -56 15 -164 53 -153 54 10 1 117 -27 128 -34 5 -3 35 -10 67 -16
32 -6 63 -15 69 -20 15 -12 277 -23 347 -15 37 5 57 12 57 21 0 15 22 25 54
25 23 0 66 41 66 62 0 6 3 9 6 5 3 -3 3 -15 -1 -27z m-5 -170 c-8 -6 -32 -15
-52 -20 -20 -6 -40 -16 -44 -22 -5 -7 -2 -9 7 -6 8 3 40 13 71 23 35 11 55 22
52 29 -3 6 8 -5 24 -24 38 -43 46 -87 20 -101 -10 -6 -16 -14 -14 -18 3 -4 -8
-28 -25 -52 -35 -51 -92 -134 -116 -167 -9 -13 -22 -31 -27 -41 -23 -40 -51
-76 -63 -84 -7 -4 -13 -22 -13 -39 0 -25 -3 -29 -12 -20 -18 18 -28 15 -28 -9
0 -11 -6 -27 -12 -34 -37 -41 -41 -53 -40 -107 1 -21 -3 -40 -7 -42 -11 -7
-25 521 -16 610 l7 71 62 7 c76 8 198 45 210 64 6 10 11 11 19 3 9 -9 8 -14
-3 -21z m3990 0 c0 -13 -11 -13 -30 0 -12 8 -11 10 8 10 12 0 22 -4 22 -10z
m-3656 -36 c5 -14 4 -15 -9 -4 -17 14 -19 20 -6 20 5 0 12 -7 15 -16z m-32
-115 c40 -34 75 -64 78 -67 23 -22 -64 35 -95 62 -22 20 -47 36 -56 36 -9 0
-20 8 -24 18 -6 15 -8 14 -16 -7 -5 -13 -12 -21 -16 -18 -3 4 2 22 11 41 9 19
16 40 17 48 0 7 7 -1 15 -19 7 -17 46 -60 86 -94z m-149 96 c-3 -9 -8 -14 -10
-11 -3 3 -2 9 2 15 9 16 15 13 8 -4z m-2396 -97 c-2 -18 -4 -4 -4 32 0 36 2
50 4 33 2 -18 2 -48 0 -65z m6437 71 c27 -21 36 -52 13 -43 -7 2 -63 8 -124
12 -109 7 -110 7 -102 30 8 21 14 22 97 22 75 0 93 -3 116 -21z m-4064 2 c0
-6 -4 -13 -10 -16 -5 -3 -10 1 -10 9 0 9 5 16 10 16 6 0 10 -4 10 -9z m3768
-386 c-2 -289 -7 -398 -15 -406 -17 -17 -217 -26 -445 -21 l-188 5 0 97 0 98
97 48 c54 27 91 50 82 52 -24 4 -186 -74 -198 -97 -6 -11 -11 -60 -11 -110 l0
-89 -62 -6 c-35 -4 -117 -7 -183 -9 l-120 -2 -3 65 c-6 100 19 724 28 734 5 5
156 10 337 13 269 3 608 14 672 21 11 2 13 -63 9 -393z m-6778 370 c0 -2 -10
-10 -22 -16 -21 -11 -22 -11 -9 4 13 16 31 23 31 12z m3295 -15 c10 -11 16
-20 13 -20 -3 0 -13 9 -23 20 -10 11 -16 20 -13 20 3 0 13 -9 23 -20z m2411
-142 c-6 -149 -22 -1206 -31 -2053 -5 -493 -15 -927 -22 -938 -2 -4 -6 -148
-9 -319 -3 -172 -6 -313 -7 -315 -2 -1 -25 6 -53 17 -31 12 -47 24 -45 32 3 7
6 123 7 258 1 135 7 282 13 326 14 109 22 697 26 1759 1 484 6 994 10 1133 l8
252 55 0 55 0 -7 -152z m-140 120 c-3 -13 -6 -34 -6 -47 l0 -24 -134 7 -134 7
-6 -38 c-12 -75 -28 -1244 -27 -2018 0 -434 0 -795 0 -801 1 -6 57 -33 125
-59 135 -53 136 -54 136 -141 0 -37 -10 -42 -34 -19 -8 8 -65 38 -125 65 -84
38 -123 50 -158 50 -58 0 -91 -16 -38 -18 61 -2 218 -84 311 -161 12 -10 29
-149 20 -158 -3 -3 -27 18 -52 47 -78 86 -258 192 -300 176 -13 -5 -2 -16 47
-44 68 -40 193 -134 221 -167 10 -11 22 -37 28 -58 6 -21 15 -35 19 -32 14 8
20 -20 27 -111 7 -89 2 -100 -32 -63 -41 45 -234 173 -337 223 -72 35 -90 59
-78 106 26 104 33 176 22 240 -6 36 -11 121 -11 190 -1 460 71 2431 99 2719
11 107 29 134 97 142 27 3 111 7 188 7 l138 2 -6 -22z m-5631 2 c-3 -5 -16
-15 -28 -21 -21 -10 -21 -9 2 10 25 23 36 27 26 11z m3435 -30 c8 -5 12 -11 9
-14 -3 -3 -14 1 -25 9 -21 16 -8 20 16 5z m3668 -22 c23 -18 42 -35 42 -39 0
-10 -224 -37 -233 -29 -5 4 -5 28 -2 54 l7 46 72 0 c66 0 76 -3 114 -32z
m-7168 17 c0 -2 -10 -9 -22 -15 -22 -11 -22 -10 -4 4 21 17 26 19 26 11z m788
-105 l0 -25 -8 25 c-4 14 -8 39 -8 55 l0 30 8 -30 c4 -16 8 -41 8 -55z m3262
49 c0 -5 10 -23 22 -39 12 -16 19 -32 16 -35 -3 -3 -17 13 -32 35 -26 40 -34
66 -16 55 6 -3 10 -11 10 -16z m-4140 7 c0 -3 -4 -8 -10 -11 -5 -3 -10 -1 -10
4 0 6 5 11 10 11 6 0 10 -2 10 -4z m3274 -10 c-3 -8 -12 -12 -21 -9 -12 5 -12
7 -1 14 20 13 28 11 22 -5z m223 -28 c2 -17 0 -19 -7 -8 -5 8 -6 18 -4 22 8
12 10 10 11 -14z m2268 12 c-3 -5 -46 -10 -96 -10 -53 0 -89 4 -89 10 0 6 39
10 96 10 61 0 93 -4 89 -10z m-4648 -32 c-3 -8 -6 -5 -6 6 -1 11 2 17 5 13 3
-3 4 -12 1 -19z m2450 -20 c-6 -4 -15 -2 -19 5 -14 21 -9 28 12 15 13 -9 16
-14 7 -20z m2193 -34 l0 -44 -105 0 -105 0 0 33 c0 51 9 56 95 59 114 4 115 4
115 -48z m1531 14 c17 -31 -4 -38 -113 -38 -97 0 -98 0 -98 25 0 26 18 32 110
37 65 4 89 -2 101 -24z m-3651 -2 c0 -3 -4 -8 -10 -11 -5 -3 -10 -1 -10 4 0 6
5 11 10 11 6 0 10 -2 10 -4z m581 -33 c13 -21 29 -44 36 -51 17 -17 17 -28 0
-14 -23 19 -79 102 -68 102 5 0 20 -17 32 -37z m-3078 -3 c3 -11 1 -18 -4 -14
-5 3 -9 12 -9 20 0 20 7 17 13 -6z m32 -49 c-7 -31 -25 -34 -25 -5 0 15 22 45
28 39 2 -2 1 -17 -3 -34z m6055 -108 c0 -71 3 -179 7 -240 l6 -113 -88 0 -88
0 6 113 c4 61 7 169 7 240 l0 127 75 0 75 0 0 -127z m-1465 45 c-6 -54 -17
-237 -17 -260 1 -19 -15 -23 -130 -33 l-68 -7 0 64 c0 35 4 68 8 75 4 6 25 14
47 17 135 20 140 21 143 40 4 17 -2 18 -100 11 l-103 -7 3 66 4 65 86 4 c48 1
97 4 109 5 21 2 22 -1 18 -40z m-6095 28 c0 -3 -4 -8 -10 -11 -5 -3 -10 -1
-10 4 0 6 5 11 10 11 6 0 10 -2 10 -4z m1267 -18 c-3 -8 -6 -5 -6 6 -1 11 2
17 5 13 3 -3 4 -12 1 -19z m-1667 -47 c0 -5 -11 -11 -25 -13 -17 -4 -25 -1
-25 8 0 8 11 14 25 14 14 0 25 -4 25 -9z m-20 -121 c0 -5 -5 -10 -11 -10 -5 0
-7 5 -4 10 3 6 8 10 11 10 2 0 4 -4 4 -10z m1935 -10 c212 -31 484 -132 557
-207 65 -67 121 -223 103 -288 -5 -21 -9 -26 -14 -15 -5 12 -28 15 -121 15
l-115 0 0 52 c0 28 -3 54 -6 57 -6 6 -120 -226 -187 -379 -56 -131 -77 -188
-107 -300 -25 -90 -169 -464 -211 -547 -47 -93 -179 -297 -201 -311 -18 -11
-136 -191 -178 -272 -50 -94 -79 -146 -108 -192 -21 -34 -29 -51 -52 -118 -4
-11 14 20 39 70 26 49 55 99 65 110 9 11 26 34 36 50 27 45 122 172 176 235
25 30 72 92 103 137 31 45 61 83 67 85 9 3 65 120 110 228 22 54 25 42 4 -20
-8 -25 -24 -76 -35 -115 -12 -38 -43 -116 -71 -173 -42 -86 -62 -115 -128
-180 -42 -42 -103 -99 -135 -126 -64 -55 -119 -130 -177 -244 -21 -41 -43 -78
-48 -81 -12 -8 -67 -167 -91 -264 -33 -136 -40 -205 -40 -379 0 -93 -3 -168
-7 -168 -5 0 -21 28 -37 63 -20 44 -48 80 -95 124 -36 35 -69 63 -72 63 -17 0
-18 -73 -4 -174 l6 -38 -66 57 c-127 111 -256 203 -313 220 -106 34 -316 -2
-375 -63 -37 -38 -46 -76 -54 -210 -3 -62 -7 -111 -9 -109 -2 1 -15 56 -30
122 -21 95 -25 133 -20 185 11 111 55 287 121 486 56 170 74 210 158 357 156
273 233 485 293 812 8 44 19 181 24 305 10 241 19 296 74 457 110 323 159 387
433 571 49 33 154 71 243 89 98 19 345 43 390 37 19 -2 67 -9 105 -14z m-1775
-14 c0 -2 -8 -10 -17 -17 -16 -13 -17 -12 -4 4 13 16 21 21 21 13z m6350 -166
c0 -69 7 -65 -127 -75 l-83 -6 0 45 c0 44 1 45 38 51 83 13 142 27 147 36 15
24 25 4 25 -51z m1680 -106 c4 -5 10 -17 12 -28 3 -17 -8 -18 -199 -20 -175
-1 -203 1 -203 14 0 34 16 39 125 43 150 5 254 2 265 -9z m-1692 -126 c0 -73
-2 -141 -4 -150 -5 -15 -18 -18 -89 -18 -110 0 -115 2 -115 56 l0 44 94 0 95
0 -1 30 -1 30 -95 0 c-82 0 -93 2 -88 16 3 9 6 38 6 64 l0 49 58 4 c31 2 75 4
98 5 l41 2 1 -132z m1167 80 c28 -13 33 -39 10 -61 -20 -20 -94 -55 -133 -63
l-32 -6 0 59 c0 33 5 64 12 71 15 15 109 16 143 0z m-292 -5 c-13 -2 -35 -2
-50 0 -16 2 -5 4 22 4 28 0 40 -2 28 -4z m835 -100 l3 -41 -58 -22 c-51 -19
-73 -21 -189 -18 -91 2 -137 8 -148 17 -19 16 -22 97 -3 104 6 3 98 5 202 4
l190 -2 3 -42z m-8701 15 c-3 -8 -6 -5 -6 6 -1 11 2 17 5 13 3 -3 4 -12 1 -19z
m7565 -43 c4 -57 -4 -64 -31 -28 -17 24 -23 26 -39 16 -15 -9 -22 -9 -31 0 -9
9 -16 8 -32 -1 -16 -11 -25 -10 -49 1 -33 17 -46 11 -55 -26 -8 -29 -25 -27
-25 3 0 21 -34 35 -67 28 -14 -3 -18 -13 -18 -48 0 -45 0 -45 38 -48 21 -2 44
1 50 6 7 5 37 9 67 8 70 -1 76 -25 10 -41 -37 -10 -45 -15 -43 -33 3 -21 -1
-22 -74 -22 l-76 0 6 80 c3 44 1 83 -4 86 -5 3 -9 17 -9 32 l0 27 189 3 189 3
4 -46z m624 -60 c7 -27 6 -27 173 -46 147 -16 204 -9 334 46 16 7 17 -31 14
-723 -1 -402 -5 -734 -9 -738 -4 -4 -36 -5 -70 -3 -35 2 -94 2 -133 1 -138 -5
-1010 -1 -1015 4 -6 6 -2 742 5 929 3 66 5 126 5 133 0 7 13 12 30 12 43 0 39
27 -7 47 -33 13 -36 16 -20 28 24 17 21 23 -10 27 -14 2 -29 9 -31 17 -4 11 3
13 32 8 24 -4 36 -2 36 6 0 21 -15 35 -43 42 -53 14 -42 45 16 45 26 0 28 3
25 32 -2 24 -10 36 -30 46 -35 16 -55 50 -35 58 39 14 444 35 474 23 38 -14
92 -11 158 10 82 26 93 26 101 -4z m-8176 -95 c-7 -85 -7 -85 -8 -20 -2 56 6
117 13 108 1 -2 -1 -41 -5 -88z m3047 8 c25 -20 65 -167 103 -378 35 -195 70
-280 151 -365 27 -29 49 -56 49 -62 0 -15 -55 -37 -169 -68 -80 -22 -105 -34
-111 -50 -12 -33 -1 -46 39 -43 26 2 35 7 33 18 -3 12 -1 12 9 3 6 -6 19 -9
28 -6 14 4 14 3 1 -6 -13 -10 -13 -12 0 -21 13 -8 11 -16 -11 -57 -29 -54 -79
-88 -145 -98 -24 -3 -53 -15 -66 -26 l-23 -21 25 7 c66 18 136 32 143 28 20
-12 -5 -80 -42 -110 -8 -7 -32 -13 -53 -13 -27 0 -38 -4 -38 -15 0 -8 5 -15
11 -15 20 0 3 -87 -23 -128 -35 -52 -111 -91 -191 -99 -50 -4 -88 0 -178 22
-144 34 -265 54 -291 47 -12 -3 -19 -1 -17 4 2 5 20 41 40 79 34 66 78 196 93
275 4 19 16 85 26 147 23 134 31 166 76 304 39 121 82 195 120 209 14 6 65 10
114 10 71 0 89 -3 94 -16 3 -9 6 -60 6 -113 l0 -98 40 10 c24 7 40 17 41 27 0
10 3 9 8 -5 7 -16 11 -10 25 35 23 72 32 165 18 174 -23 14 -199 46 -254 46
-33 0 -72 -7 -88 -15 -28 -15 -30 -14 -30 4 0 41 62 179 151 338 19 32 38 53
52 56 36 7 221 -5 234 -15z m3931 -55 c-3 -42 -6 -48 -25 -47 -13 0 -58 1
-101 2 -73 2 -78 3 -80 25 -1 12 0 32 3 45 5 21 10 22 106 22 l100 0 -3 -47z
m410 20 c2 -8 -5 -13 -17 -13 -21 0 -35 13 -24 24 10 10 36 3 41 -11z m82 -3
c0 -13 -20 -13 -40 0 -12 8 -9 10 13 10 15 0 27 -4 27 -10z m-70 -77 c0 -21 3
-62 6 -90 l7 -53 -117 0 -116 0 0 71 c0 107 2 109 120 109 l100 0 0 -37z
m-420 -18 c0 -12 -18 -15 -100 -15 -127 0 -133 18 -7 23 50 1 95 4 100 5 4 1
7 -5 7 -13z m0 -185 l0 -150 -105 0 -105 0 0 69 0 68 91 6 c50 3 93 8 96 11
15 14 -16 24 -97 30 l-90 8 0 48 0 49 103 4 c56 1 103 4 105 5 1 1 2 -65 2
-148z m-3345 120 c3 -5 1 -10 -4 -10 -6 0 -11 5 -11 10 0 6 2 10 4 10 3 0 8
-4 11 -10z m-3498 -52 c-3 -7 -5 -2 -5 12 0 14 2 19 5 13 2 -7 2 -19 0 -25z
m8770 0 c-3 -8 -6 -5 -6 6 -1 11 2 17 5 13 3 -3 4 -12 1 -19z m-8877 -54 c0
-8 -5 -12 -10 -9 -6 4 -8 11 -5 16 9 14 15 11 15 -7z m7286 -4 l84 0 0 -55 0
-55 -67 -1 c-38 0 -89 -3 -115 -5 l-48 -5 0 67 0 67 31 -7 c17 -3 69 -6 115
-6z m84 -334 c0 -95 -3 -194 -6 -220 l-7 -46 -113 0 -114 0 0 193 c0 105 3
202 6 214 6 23 22 26 177 31 l57 2 0 -174z m-411 17 c-1 -71 1 -165 6 -210 l8
-83 -118 0 -118 0 5 45 c3 25 2 45 -3 45 -5 0 -9 7 -9 15 0 12 16 14 96 12 85
-2 97 0 110 17 21 29 18 31 -37 27 -28 -1 -80 0 -114 4 l-63 6 1 55 c1 61 -7
58 82 35 61 -16 135 -14 135 3 0 10 -20 18 -57 26 -98 19 -143 39 -143 63 0
38 13 44 110 54 52 5 99 11 103 11 5 1 8 -55 6 -125z m-6042 75 c-3 -8 -6 -5
-6 6 -1 11 2 17 5 13 3 -3 4 -12 1 -19z m-763 -84 c3 -8 2 -12 -4 -9 -6 3 -10
10 -10 16 0 14 7 11 14 -7z m40 -60 c3 -8 2 -12 -4 -9 -6 3 -10 10 -10 16 0
14 7 11 14 -7z m221 -119 c58 -14 59 -14 11 -9 -27 3 -58 9 -70 14 -32 13 -8
11 59 -5z m-388 -127 c-2 -13 -4 -5 -4 17 -1 22 1 32 4 23 2 -10 2 -28 0 -40z
m3119 14 c-3 -5 -16 -7 -30 -5 -16 4 -25 0 -28 -11 -2 -11 -7 -13 -18 -6 -13
9 -12 12 5 23 43 26 88 26 71 -1z m3804 -62 l0 -41 -102 3 -103 3 -3 38 -3 37
105 0 106 0 0 -40z m410 5 c0 -19 -4 -45 -10 -59 -9 -26 -11 -26 -115 -26
l-105 0 0 55 0 54 94 3 c51 2 103 4 115 5 18 1 21 -4 21 -32z m1817 -67 c-2
-13 -4 -3 -4 22 0 25 2 35 4 23 2 -13 2 -33 0 -45z m-2217 -65 c0 -55 -2 -64
-16 -59 -9 3 -58 6 -110 6 -92 0 -94 1 -100 25 -3 14 -3 41 0 60 l7 34 102 3
c56 2 105 2 110 0 4 -2 7 -33 7 -69z m-3730 3 c0 -2 -8 -10 -17 -17 -16 -13
-17 -12 -4 4 13 16 21 21 21 13z m4130 -76 l0 -80 -115 0 -115 0 0 80 0 80
115 0 115 0 0 -80z m-6987 -69 c3 -26 2 -40 -4 -34 -5 5 -11 31 -15 58 -3 33
-2 45 4 35 5 -8 12 -35 15 -59z m6587 5 c0 -72 2 -71 -113 -68 -56 2 -106 7
-110 11 -5 5 -5 29 -2 55 l7 46 109 0 109 0 0 -44z m397 -303 c-4 -137 -10
-297 -14 -356 l-6 -108 -114 2 -113 2 0 122 c0 67 3 177 7 243 l6 122 49 0
c59 0 64 18 6 22 l-43 3 -3 98 -3 97 117 0 117 0 -6 -247z m1930 185 c-2 -13
-4 -3 -4 22 0 25 2 35 4 23 2 -13 2 -33 0 -45z m-2347 -59 l0 -72 -82 6 c-116
8 -118 9 -118 71 0 29 3 56 7 59 3 4 48 7 100 7 l93 0 0 -71z m-6520 21 c12
-7 10 -9 -8 -7 -12 0 -22 5 -22 9 0 11 12 10 30 -2z m7044 -305 c-1 -148 -3
-504 -5 -790 -4 -512 -4 -520 -24 -520 -23 0 -23 19 -12 760 4 220 7 506 7
635 0 226 1 234 18 210 15 -22 17 -53 16 -295z m1207 -199 c-1 -269 -4 -499
-7 -511 -6 -24 -52 -51 -65 -38 -21 23 -31 179 -36 568 -3 231 -9 428 -15 438
-15 29 1 38 64 35 l59 -3 0 -489z m-291 452 c4 -22 8 -25 20 -18 8 5 29 10 46
10 l31 0 12 -88 c17 -135 15 -332 -5 -360 -22 -32 -36 -28 -75 26 -59 78 -81
124 -90 187 -11 78 -2 137 27 181 l24 35 -387 -6 c-214 -3 -388 -9 -387 -13 0
-4 3 -23 6 -42 4 -19 12 -73 18 -120 6 -47 19 -100 27 -118 9 -18 14 -34 12
-36 -2 -2 -36 -12 -75 -23 l-72 -20 -4 206 c-3 113 -4 207 -3 208 6 11 228 19
520 18 l350 0 5 -27z m-7873 16 c-3 -3 -12 -4 -19 -1 -8 3 -5 6 6 6 11 1 17
-2 13 -5z m1731 -79 c-11 -11 -68 -23 -68 -15 0 5 6 11 13 13 16 7 62 8 55 2z
m4702 -74 l0 -68 -52 13 c-28 8 -73 17 -100 20 -26 4 -48 9 -49 13 0 3 -3 19
-5 35 -9 53 -3 56 106 56 l100 0 0 -69z m953 41 c4 -2 4 -9 -2 -16 -5 -6 -11
-38 -13 -71 -3 -58 -4 -60 -43 -82 -22 -12 -44 -23 -49 -23 -17 0 -79 74 -97
118 -35 81 -34 82 89 80 59 -1 111 -3 115 -6z m216 -8 c8 -8 -42 -118 -66
-147 -13 -16 -23 -34 -23 -40 0 -24 -77 73 -88 111 -22 74 -19 81 46 85 56 4
123 -1 131 -9z m123 -3 c10 -10 25 -129 18 -142 -5 -7 -19 -1 -41 18 -19 16
-42 32 -51 36 -14 5 -18 18 -18 56 l0 49 43 -5 c23 -3 45 -8 49 -12z m-6162
-25 c0 -2 -8 -10 -17 -17 -16 -13 -17 -12 -4 4 13 16 21 21 21 13z m576 -51
c9 -8 13 -15 10 -15 -3 0 -1 -11 4 -24 8 -21 6 -25 -18 -29 -33 -6 -45 2 -14
10 21 5 21 6 5 19 -12 8 -13 13 -5 14 10 0 10 5 2 20 -13 24 -5 26 16 5z m134
-46 c0 -13 4 -18 12 -13 7 5 9 2 5 -8 -3 -9 0 -21 6 -27 9 -9 8 -11 -5 -6 -10
4 -18 8 -18 9 0 0 -4 16 -9 34 -6 20 -6 32 0 32 5 0 9 -9 9 -21z m4088 5 l72
-7 0 -88 c0 -90 -6 -102 -34 -74 -9 9 -49 31 -89 49 -94 43 -104 54 -99 101 4
37 5 37 41 31 20 -3 69 -8 109 -12z m2527 -178 c0 -85 -3 -152 -7 -150 -3 2
-9 -2 -11 -8 -3 -7 -6 60 -6 150 -1 125 2 162 12 162 9 0 12 -36 12 -154z
m-6825 140 c0 -11 -19 -15 -25 -6 -3 5 1 10 9 10 9 0 16 -2 16 -4z m5632 -23
c10 -9 21 -32 24 -51 10 -53 -20 -74 -100 -70 l-61 3 -3 43 c-3 36 1 47 27 73
27 26 36 30 64 24 17 -4 40 -14 49 -22z m-457 -38 c17 -27 54 -72 83 -102 50
-51 55 -53 105 -53 29 0 61 6 72 14 11 7 36 16 57 20 29 5 41 2 63 -17 26 -22
27 -27 20 -76 -8 -57 -32 -91 -64 -91 -26 0 -51 37 -51 73 0 24 -4 28 -22 25
-21 -3 -23 -9 -26 -64 -4 -75 -16 -89 -110 -121 l-67 -23 54 5 c30 4 69 12 86
20 18 7 69 13 115 13 45 1 87 5 93 10 7 5 32 12 57 15 24 3 46 11 48 16 5 14
32 14 32 1 0 -5 5 -10 10 -10 6 0 10 7 10 16 0 10 6 14 14 11 11 -4 14 1 13
20 -1 14 4 28 12 31 11 4 13 -2 8 -28 -6 -26 -4 -31 8 -27 9 4 12 1 8 -9 -6
-16 32 -20 42 -4 3 6 24 10 47 10 l40 0 -7 43 c-10 65 -9 127 4 140 8 8 11 7
12 -3 0 -8 2 -44 4 -80 2 -36 6 -99 9 -140 2 -41 -1 -109 -6 -150 -6 -41 -11
-95 -10 -120 0 -42 -2 -46 -31 -57 -110 -38 -137 -46 -143 -41 -3 3 -8 75 -11
160 -5 164 -10 197 -23 163 -4 -11 -5 -91 -2 -177 l5 -158 -27 0 c-15 0 -36 5
-47 11 -13 6 -25 7 -32 1 -7 -5 -37 -12 -67 -15 -133 -15 -177 -46 -199 -146
-14 -62 -13 -91 10 -239 7 -45 9 -86 5 -90 -4 -4 -105 -7 -224 -7 l-217 0 -1
160 c0 88 -3 275 -5 415 -4 238 -3 255 13 252 13 -2 16 2 11 15 -4 10 -10 21
-15 24 -5 3 -6 51 -2 106 6 91 8 100 25 96 10 -3 38 4 61 15 106 48 108 49
136 17 23 -28 24 -33 18 -114 -10 -133 -16 -143 -74 -133 -22 4 -23 9 -20 61
l3 56 -39 1 -38 1 5 -53 c5 -52 4 -54 -19 -54 -17 0 -24 -6 -24 -20 0 -18 7
-20 73 -22 136 -2 137 -2 137 22 0 11 5 20 11 20 6 0 8 -9 4 -22 -4 -16 -3
-19 3 -10 5 8 12 13 16 13 54 -7 85 23 80 80 -2 24 -8 47 -14 53 -5 5 -10 16
-10 24 0 7 -13 32 -28 55 -15 23 -32 49 -37 58 -6 9 -24 36 -41 60 -36 50 -55
114 -33 107 8 -2 28 -26 44 -53z m215 9 c41 -47 38 -78 -9 -82 -19 -2 -44 -1
-56 2 -25 6 -75 50 -75 66 0 11 75 49 96 50 7 0 26 -16 44 -36z m-4180 16 c0
-5 -5 -10 -11 -10 -5 0 -7 5 -4 10 3 6 8 10 11 10 2 0 4 -4 4 -10z m-3117 -7
c-7 -2 -19 -2 -25 0 -7 3 -2 5 12 5 14 0 19 -2 13 -5z m1261 -23 c-6 -6 -10
-2 -11 12 -2 16 1 18 10 9 7 -7 8 -14 1 -21z m-29 10 c3 -5 -5 -20 -19 -33
-17 -16 -26 -37 -29 -63 -2 -30 -7 -38 -19 -36 -10 1 -19 -6 -23 -18 -4 -12
-9 -19 -12 -17 -9 9 47 117 71 138 14 12 23 26 20 31 -3 4 -3 8 0 8 3 0 8 -4
11 -10z m861 -31 c71 -34 139 -106 179 -192 34 -72 50 -148 75 -352 6 -49 20
-125 31 -168 21 -85 92 -235 144 -307 18 -25 76 -130 129 -235 111 -220 166
-315 299 -515 137 -207 195 -286 250 -336 51 -48 51 -54 5 -93 -16 -13 -27
-25 -25 -27 2 -3 64 24 138 59 133 64 174 80 364 152 55 21 161 62 235 92 205
83 612 245 735 293 225 87 359 169 396 242 30 59 135 213 222 326 94 122 146
162 209 161 59 -1 92 -12 96 -31 5 -27 -155 -164 -258 -220 -17 -10 -28 -22
-25 -28 13 -21 146 25 266 92 147 84 220 104 269 78 22 -12 56 -110 47 -134
-4 -9 -18 -16 -32 -16 -31 0 -190 -82 -225 -116 -38 -38 -7 -30 104 26 121 60
138 62 160 15 35 -74 30 -80 -162 -177 -95 -48 -221 -116 -280 -151 -131 -78
-182 -105 -296 -157 -50 -22 -133 -69 -185 -104 -53 -35 -145 -91 -206 -126
-60 -35 -150 -91 -200 -125 -49 -34 -94 -64 -100 -66 -5 -2 -64 -36 -130 -76
-143 -85 -463 -242 -636 -312 -68 -27 -171 -70 -229 -96 -160 -70 -292 -109
-376 -109 -63 0 -77 3 -128 34 -123 74 -273 259 -506 620 -79 124 -169 261
-198 305 -58 87 -215 398 -257 510 -54 142 -135 441 -135 496 0 24 -3 29 -17
25 -23 -7 -69 68 -109 174 -25 66 -28 88 -27 185 1 260 118 425 289 411 28 -2
73 -15 100 -27z m1180 3 c32 -27 64 -108 64 -162 0 -45 -1 -48 -32 -55 l-33
-8 40 -6 c22 -3 -22 -7 -98 -8 -80 -1 -135 2 -132 7 7 11 -92 1 -117 -11 -23
-12 -128 -11 -128 1 0 6 5 10 12 10 6 0 8 3 5 7 -4 3 -3 11 2 17 5 6 4 21 -2
36 -5 14 -11 30 -12 35 0 6 -5 22 -9 37 -11 39 14 62 58 54 45 -9 66 1 66 30
0 20 5 24 28 24 15 0 32 -4 37 -8 9 -7 35 -47 35 -56 0 -2 -24 -7 -52 -12
l-53 -9 83 -3 c45 -1 82 -7 82 -12 0 -5 11 -5 25 2 14 6 25 14 25 18 0 4 13
23 30 41 16 19 30 37 30 42 0 13 24 7 46 -11z m4420 -72 c14 -21 24 -45 22
-52 -3 -8 -10 -4 -18 12 -7 14 -19 29 -26 33 -13 7 -20 47 -9 47 3 0 16 -18
31 -40z m-5334 -10 c10 0 18 -7 18 -17 0 -9 7 -23 15 -32 8 -9 25 -29 38 -45
18 -23 32 -29 71 -31 27 -2 52 -7 55 -12 3 -4 33 -9 66 -10 44 -2 53 0 35 6
-22 8 -19 9 18 10 24 1 41 -2 39 -6 -3 -5 13 -8 36 -8 26 0 42 -5 45 -14 4
-12 -13 -13 -104 -8 -60 4 -129 10 -153 13 -32 5 -42 4 -37 -4 4 -7 2 -12 -3
-12 -6 0 -11 8 -12 18 0 13 -2 14 -6 2 -3 -8 -12 -19 -19 -23 -10 -6 -14 -32
-14 -95 0 -84 26 -469 34 -505 2 -9 0 -15 -5 -12 -4 3 -16 31 -25 63 -9 31
-21 66 -27 77 -6 11 -14 74 -19 140 -8 123 -9 136 -29 252 -6 38 -15 86 -18
108 -4 22 -15 52 -24 66 -9 14 -14 28 -11 31 3 4 1 16 -6 27 -13 25 -4 49 13
32 6 -6 19 -11 29 -11z m2076 -15 c-3 -3 -9 2 -12 12 -6 14 -5 15 5 6 7 -7 10
-15 7 -18z m3232 -10 c0 -8 14 -24 30 -37 17 -12 30 -30 30 -40 0 -23 -9 -23
-26 -1 -11 16 -16 17 -46 4 -18 -7 -47 -16 -65 -18 -27 -4 -34 -1 -47 25 -8
16 -12 32 -9 36 3 3 28 9 55 12 31 4 48 11 48 20 0 8 7 14 15 14 8 0 15 -7 15
-15z m-4195 -35 c0 -8 -8 -16 -17 -18 -13 -2 -18 3 -18 18 0 15 5 20 18 18 9
-2 17 -10 17 -18z m1285 -14 c0 -3 -4 -8 -10 -11 -5 -3 -10 -1 -10 4 0 6 5 11
10 11 6 0 10 -2 10 -4z m-163 -28 c-3 -8 -6 -5 -6 6 -1 11 2 17 5 13 3 -3 4
-12 1 -19z m3080 -33 c0 -8 -4 -15 -9 -15 -4 0 -8 -8 -8 -19 0 -23 -39 -36
-47 -16 -2 8 8 26 24 39 33 30 40 31 40 11z m-8320 -127 c-2 -24 -4 -5 -4 42
0 47 2 66 4 43 2 -24 2 -62 0 -85z m2053 112 c0 -5 -4 -10 -10 -10 -5 0 -10 5
-10 10 0 6 5 10 10 10 6 0 10 -4 10 -10z m2067 -6 c-3 -3 -12 -4 -19 -1 -8 3
-5 6 6 6 11 1 17 -2 13 -5z m3175 -33 c3 -3 8 -33 10 -66 2 -33 8 -68 12 -78
8 -16 0 -17 -115 -15 l-124 3 -1 75 c0 41 1 81 4 88 4 11 26 12 106 7 55 -4
104 -10 108 -14z m-5205 -23 c-3 -8 -6 -5 -6 6 -1 11 2 17 5 13 3 -3 4 -12 1
-19z m5693 18 c0 -2 -7 -6 -15 -10 -8 -3 -15 -1 -15 4 0 6 7 10 15 10 8 0 15
-2 15 -4z m-4617 -116 c-3 -11 -9 -23 -14 -26 -10 -6 -12 39 -3 49 12 12 22
-3 17 -23z m6212 20 c3 -5 1 -10 -4 -10 -6 0 -11 5 -11 10 0 6 2 10 4 10 3 0
8 -4 11 -10z m-3105 -36 c84 -10 87 -11 124 -78 28 -50 37 -79 42 -137 4 -46
14 -86 26 -107 l20 -33 18 28 c27 44 47 58 65 43 12 -10 16 -8 25 14 8 21 15
26 40 24 17 -1 36 -8 42 -15 6 -8 14 -54 19 -103 5 -49 15 -104 23 -122 8 -18
48 -69 89 -113 69 -73 76 -84 82 -133 4 -30 5 -56 2 -58 -2 -2 -26 24 -53 58
-99 126 -276 283 -344 303 -14 4 -38 15 -55 23 -16 9 -32 16 -35 17 -3 0 -11
4 -18 9 -7 4 -16 5 -19 2 -4 -3 -17 1 -29 9 -22 14 -24 14 -30 -10 -11 -46
-20 -26 -20 48 0 62 -4 78 -28 114 -42 64 -93 88 -235 113 -84 15 -313 15
-387 0 -126 -24 -199 -68 -224 -134 -12 -32 -4 -214 11 -237 12 -19 22 -4 19
28 -2 15 -4 71 -4 124 -1 82 2 100 18 118 73 80 420 103 668 44 98 -23 112
-42 116 -154 2 -49 0 -89 -5 -89 -60 -2 -167 -25 -208 -44 -41 -18 -64 -39
-104 -91 -28 -38 -51 -72 -51 -77 0 -5 -5 -6 -10 -3 -6 4 -10 3 -9 -2 1 -4 -1
-20 -5 -35 -11 -39 -43 -37 -168 11 -157 60 -216 88 -232 114 -15 23 -17 23
-213 22 -238 0 -447 -24 -549 -61 -38 -14 -123 -40 -189 -59 -66 -18 -163 -48
-215 -66 -52 -17 -99 -32 -105 -34 -5 -1 -17 -5 -25 -8 -68 -28 -216 -81 -330
-119 -52 -17 -157 -53 -233 -79 -76 -27 -142 -49 -147 -49 -7 0 -36 46 -85
135 -6 11 -17 29 -23 40 -41 71 -74 166 -83 239 -10 92 -12 424 -3 503 6 49 9
53 38 58 101 18 2839 27 2986 9z m1050 -158 l0 -93 -82 -6 c-46 -4 -102 -7
-125 -7 l-43 0 0 100 0 100 125 0 125 0 0 -94z m2028 36 c2 -7 -6 -12 -17 -12
-21 0 -27 11 -14 24 9 9 26 2 31 -12z m362 -172 c0 -100 -4 -160 -10 -160 -6
0 -10 60 -10 160 0 100 4 160 10 160 6 0 10 -60 10 -160z m-6550 85 c0 -13 -4
-27 -10 -30 -6 -4 -10 8 -10 30 0 22 4 34 10 30 6 -3 10 -17 10 -30z m-2673
-67 c-3 -8 -6 -5 -6 6 -1 11 2 17 5 13 3 -3 4 -12 1 -19z m8166 -109 c8 -121
6 -334 -4 -343 -9 -9 -68 17 -75 34 -6 16 -7 408 0 418 2 4 19 7 38 6 l33 -1
8 -114z m-1847 45 c80 -83 82 -100 13 -109 -29 -4 -55 -3 -60 2 -6 6 -14 39
-19 75 -5 36 -12 72 -16 82 -13 34 19 14 82 -50z m1699 -151 c4 -143 3 -227
-4 -245 -15 -39 -87 -51 -331 -52 l-205 -1 -12 90 c-16 126 -16 229 1 270 11
26 28 40 72 61 48 23 74 28 169 32 111 5 112 5 118 -19 4 -13 7 -38 7 -56 0
-17 5 -35 10 -38 6 -4 10 18 10 58 l0 65 68 25 c37 13 72 25 78 26 8 1 14 -65
19 -216z m-7019 91 c12 -30 13 -51 4 -127 -6 -51 -14 -235 -17 -409 -4 -193
-10 -318 -16 -318 -5 0 -7 -9 -4 -19 4 -15 0 -19 -16 -15 -11 2 -23 7 -26 11
-3 5 -18 14 -33 20 -35 16 -36 32 -3 25 14 -2 25 -8 25 -13 0 -4 8 -13 18 -18
17 -9 18 3 21 257 1 147 4 304 6 350 2 45 1 92 -4 105 -5 13 -4 29 3 39 13 21
-1 38 -15 18 -9 -12 -9 -11 -4 5 4 11 7 32 6 47 -1 16 6 31 16 37 11 6 13 11
5 11 -7 0 -12 8 -10 17 2 10 -3 18 -11 18 -8 0 -16 6 -19 13 -10 31 60 -21 74
-54z m5837 -64 c-6 -6 -230 8 -239 14 -1 1 -5 21 -9 45 l-7 44 58 -7 c160 -20
151 -20 176 3 l23 22 3 -57 c2 -31 -1 -60 -5 -64z m-7316 -137 c-2 -38 -3 -7
-3 67 0 74 1 105 3 68 2 -38 2 -98 0 -135z m6428 145 c91 -30 133 -58 215
-145 205 -216 239 -267 279 -421 7 -23 26 -58 42 -77 26 -29 38 -35 70 -35 21
0 39 -4 39 -10 0 -5 5 -10 10 -10 6 0 10 8 10 18 0 15 14 17 155 18 145 0 155
-1 155 -18 0 -31 -42 -64 -113 -87 -37 -13 -81 -34 -97 -48 -42 -35 -82 -29
-96 15 -12 37 -24 32 -24 -9 0 -44 -46 -64 -213 -89 -64 -10 -69 -9 -105 15
-20 14 -43 25 -50 25 -23 0 -86 37 -115 68 l-28 29 48 101 c26 56 53 101 59
102 29 1 21 31 -18 64 -38 33 -40 38 -35 77 4 33 -1 55 -24 106 -16 35 -29 70
-29 78 0 8 -4 15 -8 15 -4 0 -20 25 -36 55 -15 30 -34 55 -42 55 -8 0 -14 3
-14 8 0 22 -152 43 -165 22 -15 -24 -25 -6 -25 44 0 34 5 56 13 60 17 7 72 -2
142 -26z m607 6 c19 -12 -6 -24 -47 -24 -45 0 -61 11 -52 35 5 10 15 11 48 4
23 -6 46 -12 51 -15z m2418 16 c0 -5 -4 -10 -10 -10 -5 0 -10 5 -10 10 0 6 5
10 10 10 6 0 10 -4 10 -10z m-2588 -68 c-2 -13 2 -30 9 -38 32 -38 -35 -28
-74 12 -34 34 -34 42 1 47 53 8 67 4 64 -21z m216 -37 c17 -63 16 -65 -19 -48
-17 9 -51 18 -76 21 -49 5 -57 13 -49 48 6 22 11 24 69 24 l63 0 12 -45z m165
28 l87 -6 2 -128 c1 -71 2 -137 2 -146 1 -16 -10 -18 -92 -20 l-93 -1 7 101
c12 166 12 162 -14 165 -23 4 -46 34 -34 46 3 4 16 5 27 1 11 -3 59 -8 108
-12z m-1881 -47 c51 -14 128 -43 213 -81 57 -25 77 -33 105 -40 37 -10 110
-47 110 -56 0 -11 -30 -39 -41 -39 -6 0 -21 11 -35 25 -14 14 -33 25 -43 25
-10 0 -80 20 -154 45 -129 42 -324 87 -431 99 -62 7 -67 12 -25 25 53 15 241
13 301 -3z m-320 -40 c18 -7 58 -19 88 -26 85 -18 271 -71 307 -86 17 -8 37
-14 45 -14 17 0 116 -34 125 -43 3 -4 19 -7 35 -7 15 0 28 -5 28 -11 0 -7 11
-8 30 -4 36 8 40 -7 5 -23 -32 -15 -99 1 -350 83 -104 34 -244 79 -310 100
-66 21 -124 43 -130 48 -14 13 85 0 127 -17z m1838 -16 c0 -13 -7 -20 -19 -20
-27 0 -35 17 -14 29 26 15 33 13 33 -9z m156 -5 c23 -10 35 -10 43 -2 16 16
18 8 13 -51 -3 -45 -7 -52 -21 -47 -9 4 -38 9 -66 12 -58 7 -65 14 -65 70 l0
43 33 -7 c17 -3 46 -11 63 -18z m2573 -22 l-2 -48 -6 40 c-7 38 -5 55 5 55 2
0 3 -21 3 -47z m-4694 -13 c55 -21 115 -41 132 -45 48 -10 50 -25 4 -25 -23 0
-41 4 -41 10 0 5 -17 14 -37 19 -85 22 -174 41 -195 41 -34 0 -98 20 -98 30 0
10 62 17 105 12 17 -2 75 -21 130 -42z m-245 11 c0 -15 -16 -22 -89 -41 -73
-20 -571 -188 -666 -225 -194 -75 -347 -125 -427 -140 -30 -6 -38 -4 -38 8 0
9 24 23 63 37 34 13 103 37 152 55 217 79 818 277 895 294 101 23 110 24 110
12z m5057 -43 c-3 -8 -6 -5 -6 6 -1 11 2 17 5 13 3 -3 4 -12 1 -19z m-4529
-62 c9 -10 -9 -25 -23 -20 -9 4 -30 -7 -50 -25 -20 -17 -45 -31 -56 -31 -31 0
-17 23 19 32 33 9 42 34 21 55 -8 8 3 8 37 2 26 -5 49 -11 52 -13z m1855 4
c21 0 27 -5 27 -23 0 -36 -17 -46 -53 -34 -69 22 -77 27 -77 48 0 19 4 21 38
15 20 -3 49 -6 65 -6z m-2258 -10 c-3 -5 -13 -10 -21 -10 -8 0 -14 5 -14 10 0
6 9 10 21 10 11 0 17 -4 14 -10z m-110 -19 c3 -5 1 -12 -4 -16 -6 -3 -8 -12
-5 -20 8 -21 -37 -37 -54 -20 -12 11 -11 17 3 39 17 26 48 35 60 17z m264 2
c0 -12 -59 -56 -65 -50 -8 8 38 57 53 57 7 0 13 -3 12 -7z m2161 -9 c0 -8 -5
-12 -10 -9 -6 4 -8 11 -5 16 9 14 15 11 15 -7z m1540 -7 c0 -49 -17 -57 -129
-59 -65 -2 -105 1 -108 7 -6 18 137 74 190 75 43 0 47 -2 47 -23z m-3790 3 c0
-10 -32 -30 -49 -30 -18 0 -12 28 7 33 30 8 42 7 42 -3z m4867 -12 c-3 -8 -6
-5 -6 6 -1 11 2 17 5 13 3 -3 4 -12 1 -19z m-4424 5 c10 -9 -49 -33 -81 -33
-24 0 -25 0 -7 20 18 19 74 28 88 13z m152 -44 c5 -5 -2 -9 -19 -9 -18 0 -38
-10 -56 -30 -15 -16 -37 -30 -49 -30 -12 0 -21 -5 -21 -11 0 -6 -11 -9 -23 -7
-13 1 -32 -5 -41 -15 -18 -18 -46 -23 -46 -9 0 16 35 40 70 47 45 10 90 44 90
68 0 17 5 18 43 12 23 -4 46 -11 52 -16z m-935 -3 c0 -15 -48 -28 -56 -15 -9
15 6 29 32 29 14 0 24 -6 24 -14z m2514 -28 c9 -43 7 -198 -1 -198 -24 1 -40
28 -69 117 -17 54 -28 103 -23 108 4 6 26 9 47 7 35 -3 41 -7 46 -34z m1126
15 c1 -118 23 -367 36 -406 20 -60 13 -68 -56 -75 -65 -6 -94 9 -127 65 -24
42 -24 43 -14 168 6 69 11 153 11 186 0 58 1 59 28 60 41 1 84 7 90 13 12 12
32 5 32 -11z m-3143 -9 c5 -14 -75 -25 -97 -13 -13 7 -13 8 0 13 51 17 91 17
97 0z m163 -4 c0 -23 -22 -27 -39 -7 -13 16 -5 27 21 27 11 0 18 -7 18 -20z
m1943 14 c3 -3 1 -15 -6 -25 -9 -15 -9 -23 0 -38 7 -10 9 -22 5 -26 -4 -4 -7
-10 -7 -13 -1 -4 -4 -28 -9 -54 -15 -93 -36 -41 -36 88 0 71 1 74 23 74 13 0
26 -3 30 -6z m-1545 -17 c33 -10 40 -15 30 -25 -17 -17 -41 -15 -34 3 3 8 4
15 3 15 -1 0 -17 -4 -35 -9 -28 -9 -32 -7 -32 10 0 22 10 23 68 6z m-990 -14
c6 -19 -33 -16 -49 3 -11 14 -9 15 16 12 16 -1 30 -9 33 -15z m-144 1 c16 -6
23 -34 9 -34 -5 0 -19 9 -33 20 -19 15 -21 20 -8 20 9 0 23 -3 32 -6z m4216
-41 l0 -46 -107 7 c-101 6 -178 18 -189 29 -8 8 19 46 36 51 8 2 70 4 138 5
l122 1 0 -47z m-4290 28 c0 -5 3 -16 6 -25 8 -21 -19 -21 -40 0 -23 22 -20 34
9 34 14 0 25 -4 25 -9z m370 1 c0 -16 -25 -32 -49 -32 l-26 1 24 19 c24 20 51
27 51 12z m2559 -23 c-7 -4 -17 -5 -22 -2 -5 3 -3 9 4 14 7 4 17 5 22 2 5 -3
3 -9 -4 -14z m-2709 -19 c-8 -5 -23 -10 -34 -10 -16 0 -15 2 5 19 16 13 27 16
34 10 6 -7 5 -13 -5 -19z m294 15 c4 -11 -2 -15 -24 -15 -20 0 -30 5 -30 15 0
9 9 15 24 15 13 0 26 -7 30 -15z m230 6 c7 -11 -42 -44 -54 -36 -14 9 -12 32
3 38 20 9 45 8 51 -2z m406 0 c0 -10 -24 -21 -47 -21 -13 0 -13 3 -3 15 13 16
50 21 50 6z m2232 -99 c2 -42 -4 -46 -48 -38 -36 7 -36 21 0 28 26 4 33 28 8
28 -22 0 -46 23 -34 34 4 4 8 12 8 17 3 22 6 23 14 4 7 -18 8 -17 15 9 l8 28
13 -38 c8 -22 15 -54 16 -72z m-3534 75 c23 -25 20 -37 -9 -37 -20 0 -43 35
-34 50 9 15 20 12 43 -13z m-128 -6 c0 -9 -33 -21 -59 -21 -20 0 -2 17 24 23
32 8 35 7 35 -2z m550 -1 c0 -5 -4 -10 -10 -10 -5 0 -10 5 -10 10 0 6 5 10 10
10 6 0 10 -4 10 -10z m160 -3 c0 -14 -58 -43 -67 -33 -3 3 2 15 12 26 20 22
55 27 55 7z m654 -3 c28 -28 20 -41 -21 -35 -56 9 -54 30 4 50 1 1 9 -6 17
-15z m1696 6 c0 -5 -5 -10 -11 -10 -5 0 -7 5 -4 10 3 6 8 10 11 10 2 0 4 -4 4
-10z m130 0 c0 -5 -4 -10 -9 -10 -6 0 -13 5 -16 10 -3 6 1 10 9 10 9 0 16 -4
16 -10z m-2760 -20 c0 -13 -7 -20 -20 -20 -25 0 -25 9 -2 26 22 17 22 17 22
-6z m478 -9 c-18 -10 -37 -15 -42 -13 -15 8 36 40 56 34 15 -4 13 -7 -14 -21z
m2917 19 c-3 -5 -10 -10 -16 -10 -5 0 -9 5 -9 10 0 6 7 10 16 10 8 0 12 -4 9
-10z m-2725 -10 c0 -5 -8 -10 -17 -10 -15 0 -16 2 -3 10 19 12 20 12 20 0z
m1377 -2 c22 -29 20 -50 -11 -115 -41 -83 -65 -106 -181 -173 -78 -45 -215
-100 -249 -100 -14 0 -154 69 -161 79 -4 7 174 112 400 236 157 87 184 96 202
73z m-2147 -12 c0 -20 -19 -31 -32 -18 -6 6 -7 15 -4 21 10 16 36 13 36 -3z
m-3803 -48 c-2 -13 -4 -5 -4 17 -1 22 1 32 4 23 2 -10 2 -28 0 -40z m3542 39
c14 -17 4 -27 -25 -27 -28 0 -42 19 -23 31 20 12 35 11 48 -4z m495 -3 c9 -25
7 -34 -8 -34 -19 0 -28 14 -20 34 8 20 20 20 28 0z m273 0 c2 -6 -6 -14 -19
-17 -27 -7 -32 -3 -24 18 6 18 37 17 43 -1z m443 -19 c-10 -12 -16 -13 -27 -3
-13 10 -12 14 3 25 24 17 42 0 24 -22z m2000 5 c0 -29 -13 -40 -25 -20 -3 6
-17 7 -31 4 -14 -4 -24 -2 -24 5 0 6 8 11 19 11 10 0 24 7 31 15 19 23 30 18
30 -15z m253 -7 c7 -42 6 -46 -16 -37 -20 7 -29 31 -22 55 10 32 32 21 38 -18z
m2296 5 c-1 -31 -1 -31 -8 -8 -5 14 -6 28 -4 33 9 15 13 6 12 -25z m-4800 13
c17 -11 8 -27 -19 -34 -25 -6 -36 9 -20 28 14 17 20 18 39 6z m3433 -10 c48
-3 89 -9 93 -12 3 -4 3 -18 -1 -33 -7 -31 -21 -32 -114 -12 -180 39 -171 36
-159 58 9 17 17 19 52 13 23 -4 81 -10 129 -14z m-4505 -30 c39 -30 43 -54 11
-49 -15 2 -24 11 -26 25 -4 27 -46 41 -73 24 -22 -13 -49 -15 -49 -2 0 5 13
12 30 16 16 4 32 10 35 15 8 12 33 2 72 -29z m526 15 c21 -7 22 -22 1 -30 -10
-4 -25 3 -39 16 -26 25 -24 43 3 29 9 -5 25 -12 35 -15z m1007 20 c0 -11 -19
-15 -25 -6 -3 5 1 10 9 10 9 0 16 -2 16 -4z m1630 -25 c0 -38 -26 -49 -35 -14
-4 16 -11 23 -20 19 -8 -3 -15 -1 -15 4 0 9 22 17 53 19 12 1 17 -7 17 -28z
m-3320 6 c-35 -16 -36 -17 -20 -27 11 -7 1 -9 -29 -8 -27 1 -46 -3 -49 -10 -2
-7 -13 -12 -23 -12 -11 0 -41 -9 -67 -19 -62 -25 -106 -35 -97 -21 3 5 13 10
21 10 8 0 34 9 56 20 23 11 47 20 54 20 6 0 40 13 75 30 35 16 73 29 84 29 17
0 16 -2 -5 -12z m460 9 c0 -22 -17 -36 -41 -36 -31 0 -36 9 -17 28 11 11 58
17 58 8z m3580 -16 c0 -11 -6 -20 -14 -20 -18 0 -29 16 -21 30 11 18 35 11 35
-10z m-7180 -10 c-8 -6 -22 -10 -30 -10 -8 0 -4 6 10 13 27 15 44 12 20 -3z
m4570 5 c0 -8 -7 -15 -15 -15 -8 0 -15 -7 -15 -15 0 -16 -9 -19 -34 -9 -36 14
-8 54 36 54 18 0 28 -5 28 -15z m210 0 c-14 -16 -50 -21 -50 -6 0 11 18 19 44
20 15 1 16 -2 6 -14z m1740 8 c-1 -18 -18 -35 -24 -24 -4 6 -4 16 -1 21 7 12
25 13 25 3z m-2435 -23 c-16 -17 -45 -28 -45 -16 0 20 17 36 38 36 24 0 25 0
7 -20z m-4165 0 c0 -5 -4 -10 -10 -10 -5 0 -10 5 -10 10 0 6 5 10 10 10 6 0
10 -4 10 -10z m3810 3 c-1 -16 -28 -43 -44 -43 -19 0 -20 4 -6 31 10 18 50 28
50 12z m545 -2 c6 -10 -25 -31 -44 -31 -6 0 -11 9 -11 20 0 15 7 20 24 20 14
0 27 -4 31 -9z m-4390 -21 c-3 -5 -12 -10 -18 -10 -7 0 -6 4 3 10 19 12 23 12
15 0z m3604 0 c5 0 6 -11 4 -24 -4 -18 -10 -22 -24 -19 -24 7 -32 20 -25 40 4
9 13 13 22 9 9 -3 19 -6 23 -6z m465 -5 c4 -10 -1 -15 -14 -15 -11 0 -20 7
-20 15 0 8 6 15 14 15 8 0 16 -7 20 -15z m766 11 c0 -8 -160 -86 -176 -86 -13
0 -14 3 -4 15 7 8 23 15 36 15 12 0 26 5 30 11 17 28 114 66 114 45z m-280
-19 c0 -17 -36 -38 -55 -31 -21 9 -19 19 8 32 30 15 47 14 47 -1z m3244 -12
c47 -16 97 -25 136 -25 56 0 61 -2 55 -19 -3 -12 3 -30 20 -49 26 -31 32 -57
15 -67 -5 -3 -58 17 -118 44 -60 27 -122 53 -138 57 -46 11 -74 34 -74 60 0
30 11 30 104 -1z m-3504 6 c0 -9 -24 -21 -42 -21 -6 0 -6 6 2 15 14 16 40 20
40 6z m2629 -4 c6 -8 8 -35 5 -68 -4 -40 -3 -50 5 -39 6 8 11 32 11 52 0 44
13 49 97 45 61 -2 60 0 39 -101 -9 -40 -24 -78 -36 -91 -26 -28 -120 -65 -164
-65 -43 0 -136 28 -136 41 0 6 -21 19 -46 30 -25 12 -44 22 -42 23 2 2 20 6
40 9 34 5 37 4 40 -21 4 -35 41 -40 86 -12 42 26 62 74 62 150 0 61 13 77 39
47z m1199 -44 c11 -32 34 -94 52 -138 17 -44 40 -107 52 -140 11 -33 56 -131
99 -218 44 -87 79 -159 79 -161 0 -4 -136 3 -207 10 l-53 5 0 177 c0 121 -5
195 -15 236 -15 62 -45 243 -45 271 0 33 18 12 38 -42z m-4844 38 c6 -8 -25
-21 -51 -21 -22 0 -14 18 10 23 12 2 25 5 29 6 4 0 9 -3 12 -8z m113 -18 c6
-17 -55 -27 -74 -12 -14 12 -13 14 8 21 33 9 62 5 66 -9z m369 6 c7 -12 -12
-29 -33 -29 -7 0 -13 9 -13 20 0 22 34 28 46 9z m242 -1 c-6 -16 -36 -34 -44
-26 -3 4 -4 14 -1 23 7 17 51 21 45 3z m216 -3 c4 -10 -1 -15 -14 -15 -13 0
-18 5 -14 15 4 8 10 15 14 15 4 0 10 -7 14 -15z m-1290 -45 c41 -39 95 -71
234 -139 100 -48 212 -98 249 -110 37 -12 93 -40 123 -62 62 -44 60 -51 -3
-15 -24 13 -66 25 -97 28 -59 5 -71 10 -310 126 -156 75 -211 113 -256 173
-50 68 -12 67 60 -1z m586 25 c16 -19 4 -35 -26 -35 -23 0 -54 20 -54 34 0 2
12 7 28 9 15 2 30 5 33 6 4 0 12 -6 19 -14z m1080 5 c0 -5 -4 -10 -10 -10 -5
0 -10 -6 -10 -14 0 -12 -69 -56 -88 -56 -9 0 90 89 101 90 4 0 7 -4 7 -10z
m2624 -40 c-2 -122 -22 -163 -85 -172 -21 -3 -24 1 -27 34 -2 20 4 53 12 73 9
21 16 43 16 51 0 7 4 25 10 39 8 22 15 26 42 23 32 -3 33 -4 32 -48z m-2809
20 c-19 -21 -45 -27 -45 -10 0 11 30 29 49 30 11 0 10 -5 -4 -20z m-739 0 c21
0 18 -40 -3 -41 -10 -1 -22 -2 -28 -4 -5 -1 -15 -3 -21 -3 -7 -1 -14 -11 -17
-22 -6 -22 -36 -27 -55 -8 -19 19 -14 28 17 28 32 0 61 22 61 47 0 10 6 13 16
9 9 -3 22 -6 30 -6z m228 1 c3 -5 -1 -14 -9 -21 -12 -10 -18 -10 -30 0 -18 15
-11 30 15 30 10 0 21 -4 24 -9z m256 1 c0 -14 -23 -32 -42 -32 -18 0 -25 20
-11 33 9 10 53 9 53 -1z m3131 -23 c17 -32 41 -130 35 -145 -3 -8 -19 -20 -36
-25 -50 -18 -36 -31 25 -24 32 4 74 2 105 -5 38 -9 71 -9 138 -1 270 35 298
47 150 66 -56 7 -66 18 -74 79 -7 46 -6 46 17 37 75 -29 299 -147 300 -157 1
-12 -161 -73 -224 -85 -34 -6 -176 -15 -316 -19 -141 -5 -268 -12 -282 -16
-22 -5 -27 -2 -31 19 -4 21 3 27 64 56 75 35 70 26 89 159 11 79 22 96 40 61z
m-2978 -6 c27 -8 14 -28 -21 -31 -29 -3 -32 -1 -32 23 0 22 3 26 18 20 9 -4
25 -10 35 -12z m-993 -7 c0 -19 -46 -29 -70 -16 -33 18 -23 30 25 30 32 0 45
-4 45 -14z m-2675 -96 c12 -29 16 -220 4 -220 -7 0 -9 15 -4 43 4 30 3 38 -4
27 -9 -13 -11 -12 -11 3 0 10 -7 20 -15 23 -8 4 -13 9 -11 13 3 4 -4 8 -15 8
-10 1 -19 -4 -19 -10 0 -6 -10 3 -22 20 -13 18 -29 33 -35 33 -7 0 -13 11 -13
24 0 13 -3 31 -6 40 -4 10 3 19 20 27 29 14 34 29 10 29 -9 0 -12 -5 -8 -12 5
-8 2 -9 -10 -5 -10 4 -15 3 -11 -3 3 -6 2 -10 -4 -10 -5 0 -9 9 -8 19 0 11 6
17 14 14 19 -7 16 7 -4 24 -10 7 19 -6 64 -29 45 -24 85 -50 88 -58z m2805 85
c0 -8 -9 -15 -20 -15 -11 0 -20 7 -20 15 0 8 9 15 20 15 11 0 20 -7 20 -15z
m390 5 c0 -12 -41 -30 -52 -23 -20 12 -6 33 22 33 17 0 30 -5 30 -10z m230 0
c0 -6 -7 -13 -15 -16 -8 -4 -15 -13 -15 -21 0 -8 -7 -13 -17 -11 -12 2 -18 13
-18 31 -1 24 3 27 32 27 18 0 33 -5 33 -10z m5240 -26 c0 -8 -4 -12 -10 -9 -5
3 -10 13 -10 21 0 8 5 12 10 9 6 -3 10 -13 10 -21z m-6086 1 c11 -8 17 -17 14
-21 -6 -6 -68 23 -68 31 0 11 36 4 54 -10z m1224 -5 c3 -7 0 -10 -6 -6 -6 3
-13 2 -17 -4 -3 -5 -10 -10 -16 -10 -5 0 -4 9 3 20 14 22 29 22 36 0z m-235
-7 c13 -16 14 -20 1 -37 -11 -16 -14 -17 -14 -4 0 9 -9 18 -20 21 -25 6 -26
37 -2 37 11 0 26 -8 35 -17z m-273 -17 c0 -27 -17 -36 -68 -36 l-37 1 35 29
c44 37 70 39 70 6z m-190 0 c0 -20 -16 -29 -40 -21 -32 10 -25 35 10 35 19 0
30 -5 30 -14z m-340 -6 c0 -14 -59 -42 -71 -34 -6 4 1 14 18 24 32 21 53 25
53 10z m125 -10 c24 -27 14 -35 -26 -21 -38 13 -50 6 -23 -13 28 -21 9 -32
-21 -12 -32 21 -31 27 3 48 35 23 45 22 67 -2z m835 10 c0 -9 -32 -30 -46 -30
-4 0 1 9 11 20 19 21 35 26 35 10z m1600 -42 c89 -63 81 -68 -59 -39 -55 12
-120 21 -145 21 -25 0 -46 4 -46 9 0 12 119 60 151 61 15 0 55 -21 99 -52z
m-1865 24 c27 -1 9 -21 -45 -50 -33 -17 -60 -27 -60 -22 0 5 9 14 20 20 11 6
18 15 15 20 -3 5 0 18 6 29 9 14 18 17 33 11 12 -4 25 -8 31 -8z m-4788 -54
c-2 -13 -4 -3 -4 22 0 25 2 35 4 23 2 -13 2 -33 0 -45z m3687 17 c84 -56 224
-123 336 -160 47 -16 98 -37 115 -47 16 -10 42 -18 56 -18 30 0 129 -39 129
-50 0 -10 -46 -40 -60 -40 -16 0 -203 81 -356 155 -132 63 -266 150 -284 186
-6 10 -9 19 -7 19 3 0 35 -20 71 -45z m799 11 c26 -20 21 -26 -21 -26 -43 0
-53 6 -45 26 7 18 42 18 66 0z m-129 -11 c-4 -10 0 -15 14 -15 12 0 24 -4 27
-10 3 -6 -9 -9 -32 -8 -21 1 -53 -2 -71 -7 -28 -7 -32 -5 -26 10 7 17 56 44
81 45 7 0 10 -7 7 -15z m603 -2 c-9 -9 -20 -13 -24 -9 -4 4 -1 11 7 16 25 16
35 11 17 -7z m-299 -31 c2 -6 -11 -18 -27 -27 -28 -14 -46 -5 -20 11 6 3 9 17
6 31 -4 22 -3 23 16 10 12 -8 23 -19 25 -25z m252 14 c0 -5 -60 -36 -69 -36
-12 1 42 40 55 40 8 0 14 -2 14 -4z m1198 -35 l74 -32 89 25 c109 32 189 33
319 6 52 -11 111 -20 130 -20 42 0 125 -38 163 -74 31 -31 61 -87 71 -133 14
-61 -62 -140 -188 -198 -123 -56 -264 -79 -496 -79 -157 -1 -182 2 -245 22
-103 35 -171 89 -160 129 8 35 48 93 63 93 15 0 16 5 -8 -58 -24 -62 -25 -72
-6 -72 8 0 16 10 20 23 3 13 16 39 29 59 21 30 22 37 10 54 -7 10 -11 24 -9
31 7 18 -12 26 -27 11 -21 -21 -85 -121 -95 -148 -5 -14 -6 -35 -1 -47 13 -35
85 -81 173 -110 77 -26 91 -28 266 -27 373 0 553 61 693 232 21 26 25 39 20
65 -12 64 -60 153 -97 182 -20 15 -36 31 -36 35 0 7 29 12 150 26 25 3 59 9
75 14 17 5 51 12 78 16 43 6 47 5 40 -12 -3 -11 -13 -29 -21 -42 -20 -32 -10
-101 19 -125 l22 -18 -34 -29 c-19 -16 -40 -29 -48 -30 -8 0 -12 -3 -9 -6 3
-3 30 2 59 10 55 17 76 13 46 -8 -26 -20 -21 -28 13 -21 22 5 30 3 30 -7 0
-18 110 -24 361 -21 l176 2 7 -74 c9 -102 3 -122 -42 -129 -21 -3 -161 -9
-312 -12 -227 -6 -279 -9 -299 -23 -18 -12 -58 -17 -158 -19 -130 -4 -165 -13
-102 -26 50 -10 175 -7 366 8 98 8 275 20 393 26 118 6 249 15 290 20 41 6
199 17 350 26 151 8 284 17 295 19 11 3 48 7 83 9 l62 5 0 -44 c0 -29 -4 -45
-12 -45 -48 0 -417 -21 -523 -30 -648 -51 -776 -59 -1305 -80 -135 -6 -366
-17 -515 -25 -148 -8 -434 -20 -635 -25 -201 -6 -392 -15 -425 -20 -33 -6
-159 -15 -280 -20 -121 -6 -255 -14 -297 -18 -42 -4 -89 -3 -104 2 -19 6 -29
5 -35 -5 -4 -7 -11 -10 -15 -7 -16 17 10 37 93 72 166 71 406 214 823 489 174
115 203 133 340 203 102 53 137 54 248 5z m1242 11 c29 -29 41 -33 215 -64 77
-14 92 -31 56 -67 -27 -27 -102 -28 -196 -2 -67 19 -79 28 -122 88 -16 24 -11
73 8 73 6 0 23 -13 39 -28z m-2788 -26 c16 -12 16 -14 -5 -24 -58 -27 -75 -23
-50 14 17 27 30 29 55 10z m243 -2 c-31 -24 -75 -45 -75 -37 0 11 62 52 80 52
11 0 10 -4 -5 -15z m-4795 -20 c0 -8 -4 -12 -10 -9 -5 3 -10 10 -10 16 0 5 5
9 10 9 6 0 10 -7 10 -16z m4455 -13 c16 -6 12 -11 -28 -26 -25 -9 -54 -14 -63
-11 -14 5 -11 10 17 26 38 21 45 22 74 11z m4271 -6 c17 -44 -19 -80 -126
-124 -30 -12 -73 -31 -96 -42 -54 -25 -71 -24 -78 6 -13 52 2 75 73 107 144
66 216 82 227 53z m-1516 -5 c0 -5 -4 -10 -10 -10 -5 0 -10 5 -10 10 0 6 5 10
10 10 6 0 10 -4 10 -10z m-7223 -77 c-2 -16 -4 -3 -4 27 0 30 2 43 4 28 2 -16
2 -40 0 -55z m90 15 c-2 -13 -4 -3 -4 22 0 25 2 35 4 23 2 -13 2 -33 0 -45z
m3653 44 c0 3 24 -8 53 -25 29 -18 128 -63 220 -102 92 -38 167 -73 167 -77 0
-4 -9 -12 -21 -19 -33 -17 -152 -59 -170 -59 -8 0 -31 15 -50 33 -68 65 -181
187 -173 187 4 0 0 6 -11 13 -10 8 -15 19 -12 24 4 6 0 13 -8 17 -8 3 -15 11
-15 18 0 9 3 8 10 -2 5 -8 10 -12 10 -8z m950 -2 c-33 -26 -52 -25 -21 0 13
11 28 20 35 20 6 0 0 -9 -14 -20z m3072 -20 l17 -30 316 2 315 3 0 -27 c0 -15
-4 -38 -9 -51 -9 -23 -15 -24 -128 -31 -218 -13 -791 -8 -869 7 -39 8 -78 18
-85 22 -36 22 -119 86 -119 93 0 16 49 30 68 18 95 -55 103 -58 236 -67 l130
-9 51 50 c27 27 52 50 55 50 3 0 13 -14 22 -30z m-3132 -3 c0 -15 -76 -44 -87
-34 -3 4 3 7 14 7 12 0 31 9 44 20 29 23 29 23 29 7z m-4003 -69 c-2 -13 -4
-3 -4 22 0 25 2 35 4 23 2 -13 2 -33 0 -45z m352 -5 c-1 -62 -2 -65 -11 -34
-9 31 -4 101 7 101 3 0 5 -30 4 -67z m3506 16 c-8 -12 -35 -12 -35 0 0 11 22
20 33 14 4 -2 5 -9 2 -14z m4255 -130 c3 -57 4 -109 2 -116 -3 -11 -35 -16
-173 -29 l-65 -6 4 35 c5 42 11 45 117 61 57 9 75 15 61 21 -10 5 -54 2 -98
-5 -86 -14 -102 -9 -96 31 2 19 23 32 113 71 61 26 115 46 120 44 6 -1 12 -49
15 -107z m-7391 38 c-1 -31 -1 -31 -9 -7 -11 36 -11 52 0 45 6 -3 10 -21 9
-38z m1598 -19 c-3 -8 -6 -5 -6 6 -1 11 2 17 5 13 3 -3 4 -12 1 -19z m-2309
-53 c0 -16 -2 -15 -8 5 -11 34 -11 60 0 35 5 -11 8 -29 8 -40z m420 4 c1 -44
-14 -112 -18 -84 -1 6 -3 19 -6 30 -5 27 6 105 16 105 5 0 8 -23 8 -51z m7362
-16 c6 -32 14 -68 17 -80 3 -14 0 -24 -8 -27 -8 -3 -102 -9 -209 -15 -107 -6
-219 -14 -247 -17 -45 -6 -53 -4 -53 10 0 9 5 16 10 16 21 0 8 34 -30 77 -70
80 -66 82 128 86 92 1 215 4 274 5 l107 2 11 -57z m-7803 -35 c-3 -7 -5 -2 -5
12 0 14 2 19 5 13 2 -7 2 -19 0 -25z m30 -60 c-2 -18 -4 -6 -4 27 0 33 2 48 4
33 2 -15 2 -42 0 -60z m-525 0 c-5 -95 -9 -104 -11 -25 0 42 2 77 7 77 4 0 6
-24 4 -52z m3016 -25 c26 -37 69 -91 96 -120 27 -29 47 -56 43 -59 -3 -3 -36
-8 -74 -10 -37 -3 -74 -7 -80 -9 -7 -3 -13 -1 -14 3 -5 56 -16 122 -28 162
-14 44 -14 100 -1 100 6 0 31 -30 58 -67z m4740 33 c3 -12 -1 -17 -10 -14 -7
3 -15 13 -16 22 -3 12 1 17 10 14 7 -3 15 -13 16 -22z m-6831 -78 c-2 -18 -4
-6 -4 27 0 33 2 48 4 33 2 -15 2 -42 0 -60z m290 -10 c-2 -18 -4 -4 -4 32 0
36 2 50 4 33 2 -18 2 -48 0 -65z m-720 25 c-3 -10 -5 -2 -5 17 0 19 2 27 5 18
2 -10 2 -26 0 -35z m8480 12 c14 -5 47 -64 40 -72 -3 -2 -77 -1 -166 3 l-161
7 0 32 c0 17 2 34 4 36 5 5 266 0 283 -6z m-8440 -92 c-3 -10 -5 -2 -5 17 0
19 2 27 5 18 2 -10 2 -26 0 -35z m-528 -282 c0 -68 -1 -122 -3 -120 -2 2 -6
101 -8 219 -3 132 -2 178 2 120 4 -52 8 -151 9 -219z m921 300 c0 -6 -4 -13
-10 -16 -5 -3 -10 1 -10 9 0 9 5 16 10 16 6 0 10 -4 10 -9z m247 -23 c-3 -8
-6 -5 -6 6 -1 11 2 17 5 13 3 -3 4 -12 1 -19z m-680 -30 c-3 -7 -5 -2 -5 12 0
14 2 19 5 13 2 -7 2 -19 0 -25z m8143 17 c0 -17 35 -21 45 -5 3 6 51 10 109
10 81 0 106 -3 116 -15 28 -34 -3 -40 -243 -47 -316 -9 -608 -26 -692 -38 -84
-13 -101 -14 -465 -40 -157 -11 -413 -29 -570 -40 -157 -11 -397 -24 -535 -30
-137 -6 -315 -15 -395 -20 -139 -9 -304 -18 -710 -40 -102 -5 -322 -17 -490
-26 -168 -9 -386 -19 -485 -23 -116 -5 -188 -12 -204 -20 l-23 -13 7 -189 c5
-129 4 -189 -3 -189 -14 0 -20 54 -27 236 l-6 150 38 17 c120 51 172 70 203
73 220 26 399 39 741 54 468 21 657 30 824 40 94 6 240 15 325 20 85 6 317 16
515 25 484 20 672 31 983 61 144 13 316 24 381 23 65 -1 133 3 152 9 19 6 88
13 153 16 66 3 120 7 122 9 1 1 32 3 68 5 54 2 66 0 66 -13z m420 -30 c8 -9 8
-15 2 -15 -18 0 -42 12 -42 21 0 14 26 10 40 -6z m-8513 -142 c-2 -27 -3 -5
-3 47 0 52 1 74 3 48 2 -27 2 -69 0 -95z m-367 66 c0 -5 -4 -9 -10 -9 -5 0
-10 7 -10 16 0 8 5 12 10 9 6 -3 10 -10 10 -16z m688 -94 c-1 -39 -1 -39 -8
10 -5 28 -8 64 -8 80 0 26 1 24 9 -10 4 -22 8 -58 7 -80z m89 93 c-3 -8 -6 -5
-6 6 -1 11 2 17 5 13 3 -3 4 -12 1 -19z m-458 -73 c0 -33 -6 -71 -13 -85 -15
-26 -11 -125 6 -147 5 -7 5 -14 -2 -18 -11 -7 -14 -171 -2 -178 4 -3 7 33 7
81 0 59 4 86 13 89 7 3 12 -6 13 -24 1 -27 1 -27 8 -4 9 33 31 39 32 9 1 -23
1 -23 8 2 5 16 10 -23 15 -105 3 -71 11 -188 16 -260 11 -145 13 -221 4 -213
-7 8 -11 47 -15 143 l-3 80 -6 -75 c-6 -70 -7 -72 -10 -25 -7 106 -7 131 3
152 11 25 1 45 -12 24 -15 -23 -30 -2 -37 49 -4 28 -11 50 -16 50 -6 0 -8 -15
-6 -34 2 -19 0 -32 -4 -30 -4 3 -8 18 -8 33 0 15 -8 35 -19 45 -14 13 -19 33
-20 92 -1 43 -8 86 -15 98 -10 14 -13 46 -11 99 6 149 25 225 41 162 11 -46
27 -28 22 26 -3 29 -2 45 3 37 5 -7 9 -40 8 -73z m8371 66 c3 0 4 -78 2 -171
l-3 -170 -93 6 c-85 6 -200 2 -786 -27 -201 -9 -248 -12 -700 -43 -124 -8
-362 -22 -530 -31 -168 -9 -386 -22 -485 -30 -99 -8 -295 -24 -435 -35 -140
-11 -340 -29 -445 -40 -104 -10 -266 -24 -360 -30 -93 -7 -204 -16 -245 -21
-41 -6 -187 -16 -325 -23 -207 -11 -252 -11 -264 0 -11 10 -16 52 -19 173 l-5
160 24 5 c13 3 161 12 329 21 168 9 386 22 485 30 99 8 266 17 370 20 105 4
316 15 470 25 154 10 361 22 460 25 99 4 281 13 405 21 124 8 308 19 410 25
200 11 494 33 655 49 99 9 839 57 965 62 60 3 108 2 120 -1z m-8823 -203 c-1
-40 -3 -10 -3 67 0 77 1 110 3 73 2 -37 2 -100 0 -140z m20 -40 c-1 -46 -3 -9
-3 82 0 91 2 128 3 83 2 -46 2 -120 0 -165z m47 -30 c4 -150 11 -293 16 -318
5 -27 5 -46 -1 -48 -5 -2 -9 -15 -9 -29 0 -21 -3 -23 -14 -14 -12 10 -15 8
-19 -11 -3 -15 -5 -10 -6 15 0 21 4 37 10 37 8 0 9 86 4 320 -5 205 -4 320 2
320 6 0 13 -108 17 -272z m9883 150 c-2 -24 -4 -5 -4 42 0 47 2 66 4 43 2 -24
2 -62 0 -85z m-6776 83 c19 -16 21 -21 9 -25 -24 -9 -210 -12 -210 -3 0 4 -1
10 -2 15 -3 8 98 29 148 31 18 1 42 -7 55 -18z m1249 -30 c0 -10 -69 -25 -77
-17 -7 7 35 24 60 25 9 1 17 -3 17 -8z m-3911 -68 c0 -25 -1 -26 -9 -8 -12 27
-12 35 0 35 6 0 10 -12 9 -27z m318 -25 c-3 -8 -6 -5 -6 6 -1 11 2 17 5 13 3
-3 4 -12 1 -19z m2499 -56 c52 -56 86 -82 113 -90 40 -12 85 -53 186 -167 33
-38 66 -74 73 -81 6 -7 12 -18 12 -24 0 -6 5 -8 10 -5 6 3 10 -2 10 -11 0 -10
3 -15 6 -11 4 3 27 -13 52 -36 160 -147 182 -171 170 -178 -10 -7 -10 -11 0
-21 14 -14 16 -28 4 -28 -4 0 -43 24 -87 53 -44 29 -93 60 -110 68 -145 73
-256 140 -407 243 -98 67 -197 132 -220 146 -125 74 -132 81 -144 159 -6 36
-4 39 22 48 16 6 75 11 132 12 l103 2 75 -79z m-2809 -64 c-2 -13 -4 -5 -4 17
-1 22 1 32 4 23 2 -10 2 -28 0 -40z m320 5 c-3 -10 -5 -2 -5 17 0 19 2 27 5
18 2 -10 2 -26 0 -35z m-562 -40 c-5 -30 -8 -33 -22 -22 -10 9 -11 15 -4 17 6
2 11 14 11 27 0 13 3 32 7 42 7 16 8 15 11 -6 2 -13 1 -39 -3 -58z m-93 14
c-7 -8 -9 -17 -5 -20 3 -4 -2 -9 -11 -13 -10 -4 -22 -2 -29 5 -8 8 -6 11 7 11
15 0 16 3 6 15 -10 12 -10 18 0 31 12 13 15 13 28 0 12 -12 13 -18 4 -29z
m3770 -84 c3 -71 2 -129 -3 -131 -4 -2 -6 -9 -3 -17 6 -14 -8 -13 -76 7 -33
10 -193 130 -233 176 -18 20 -18 20 5 28 13 4 34 6 48 5 14 -2 21 1 17 5 -7 7
173 49 224 53 14 1 17 -17 21 -126z m-3978 75 c3 -13 6 -109 6 -213 0 -161 -3
-194 -16 -214 -15 -21 -16 -45 -10 -195 4 -94 6 -169 3 -166 -2 3 -9 20 -15
38 -8 23 -8 31 -1 26 7 -4 9 0 6 12 -8 24 -8 200 -2 484 3 124 5 231 5 238 0
21 17 13 24 -10z m-34 -168 c0 -102 -4 -160 -10 -160 -7 0 -10 -56 -9 -155 1
-86 -1 -159 -5 -162 -8 -8 -8 93 1 395 3 133 10 242 15 242 4 0 8 -72 8 -160z
m233 86 c12 -10 17 -27 17 -65 0 -28 -4 -51 -8 -51 -5 0 -14 -11 -20 -25 -6
-14 -18 -25 -27 -25 -8 0 -15 -4 -15 -10 0 -5 -3 -10 -7 -10 -12 0 -3 173 9
188 13 15 28 15 51 -2z m8588 -14 c-7 -13 -7 -22 1 -30 8 -8 4 -14 -15 -21
-15 -6 -27 -14 -26 -18 1 -5 0 -12 -1 -18 -1 -5 -1 -40 0 -77 2 -67 1 -68 -24
-68 -14 0 -26 -4 -26 -10 0 -5 -7 -10 -15 -10 -17 0 -18 -2 -9 -24 3 -9 10
-13 15 -10 8 5 11 -15 11 -81 0 -68 0 -67 -27 -49 -29 19 -45 12 -45 -22 0
-20 -5 -24 -28 -24 -20 0 -37 -10 -58 -35 -20 -24 -37 -35 -56 -35 -16 0 -28
4 -28 10 0 5 -18 13 -41 16 -28 5 -39 11 -35 20 4 10 -3 14 -19 14 -16 0 -25
6 -25 16 0 10 5 14 15 10 20 -7 29 16 20 51 -5 21 -8 24 -15 13 -10 -16 -15
-7 -23 40 -3 19 -5 17 -6 -10 -2 -62 -21 -12 -21 58 0 45 -4 64 -14 68 -11 4
-15 25 -15 80 0 46 3 72 9 69 6 -3 10 -1 10 5 0 7 6 8 19 0 11 -5 26 -10 33
-9 9 0 9 2 -2 6 -8 3 -23 14 -34 25 -20 18 -20 18 14 12 47 -9 30 7 -17 17
-31 7 -28 8 20 4 32 -2 84 1 115 6 31 6 109 14 172 18 193 13 182 14 171 -7z
m-536 -8 c13 -5 14 -8 3 -15 -19 -13 -28 -11 -28 6 0 17 2 18 25 9z m-7927
-93 c5 -34 5 -61 0 -61 -4 0 -8 -7 -8 -15 0 -8 5 -15 12 -15 6 0 3 -8 -8 -19
-10 -10 -21 -16 -24 -14 -4 4 -12 37 -37 156 -4 23 -1 29 16 34 11 3 21 10 21
17 1 29 21 -29 28 -83z m952 -22 c0 -20 -4 -28 -12 -23 -7 5 -8 3 -3 -6 9 -15
8 -102 -2 -134 -4 -15 -7 -16 -14 -5 -7 12 -3 157 7 187 7 24 24 11 24 -19z
m5323 4 c-7 -2 -21 -2 -30 0 -10 3 -4 5 12 5 17 0 24 -2 18 -5z m107 -3 c0 -5
-7 -7 -15 -4 -8 4 -15 8 -15 10 0 2 7 4 15 4 8 0 15 -4 15 -10z m1147 -42 c-3
-7 -5 -2 -5 12 0 14 2 19 5 13 2 -7 2 -19 0 -25z m-1739 15 c-10 -2 -28 -2
-40 0 -13 2 -5 4 17 4 22 1 32 -1 23 -4z m2143 -18 c5 12 8 -13 8 -65 0 -54
-3 -78 -9 -65 -6 17 -8 14 -12 -15 -3 -19 -5 10 -5 65 0 55 2 91 5 80 l5 -20
8 20z m-8109 -105 c2 -22 0 -40 -4 -40 -5 0 -8 18 -8 40 0 22 2 40 4 40 2 0 6
-18 8 -40z m4929 -84 c-5 -34 -17 -128 -26 -211 -21 -206 -31 -281 -55 -420
-27 -153 -28 -156 -46 -130 -46 66 -66 81 -166 130 -164 80 -171 87 -185 182
-15 101 -4 232 35 438 6 30 12 40 27 41 11 0 27 3 35 7 8 3 42 8 75 10 88 6
217 27 238 38 13 7 17 5 17 -7 0 -11 5 -14 16 -10 9 3 18 6 20 6 2 0 4 8 4 18
0 10 3 22 8 26 12 13 14 -53 3 -118z m3206 32 c-2 -18 -4 -4 -4 32 0 36 2 50
4 33 2 -18 2 -48 0 -65z m-3437 53 c-14 -9 -64 -15 -85 -11 -20 3 31 19 65 19
25 0 31 -2 20 -8z m-700 -48 c37 -43 39 -47 22 -60 -15 -12 -14 -13 12 -11 18
2 31 -2 34 -11 3 -8 0 -11 -7 -7 -7 5 -9 1 -5 -8 3 -9 15 -16 25 -16 11 0 19
-7 19 -17 0 -9 7 -24 16 -34 16 -18 12 -39 -8 -39 -5 0 -7 7 -4 16 3 8 2 12
-4 9 -10 -6 -19 2 -149 137 l-83 86 46 0 c42 0 49 -4 86 -45z m307 41 c-3 -3
-12 -4 -19 -1 -8 3 -5 6 6 6 11 1 17 -2 13 -5z m-4452 -84 c3 -5 1 -10 -4 -10
-6 0 -11 5 -11 10 0 6 2 10 4 10 3 0 8 -4 11 -10z m7584 -32 c-1 -41 -1 -42
-11 -15 -5 15 -7 34 -4 42 10 27 16 16 15 -27z m1164 16 c-4 -12 -8 -13 -14
-3 -9 15 -2 32 11 24 5 -3 6 -13 3 -21z m-8686 -26 c-3 -8 -6 -5 -6 6 -1 11 2
17 5 13 3 -3 4 -12 1 -19z m8180 -45 c-3 -10 -5 -4 -5 12 0 17 2 24 5 18 2 -7
2 -21 0 -30z m82 -20 c0 -33 -1 -35 -9 -15 -8 20 -4 52 6 52 2 0 4 -17 3 -37z
m-2824 -13 c-3 -5 -14 -10 -23 -10 -15 0 -15 2 -2 10 20 13 33 13 25 0z m30
-20 c3 -6 -1 -7 -9 -4 -18 7 -21 14 -7 14 6 0 13 -4 16 -10z m-3998 -82 c-2
-13 -4 -3 -4 22 0 25 2 35 4 23 2 -13 2 -33 0 -45z m-800 -10 c-2 -13 -4 -5
-4 17 -1 22 1 32 4 23 2 -10 2 -28 0 -40z m4987 43 c4 -5 -3 -7 -14 -4 -23 6
-26 13 -6 13 8 0 17 -4 20 -9z m2756 -5 c0 -3 -4 -8 -10 -11 -5 -3 -10 -1 -10
4 0 6 5 11 10 11 6 0 10 -2 10 -4z m1567 -53 c-3 -10 -5 -4 -5 12 0 17 2 24 5
18 2 -7 2 -21 0 -30z m-5642 17 c3 -5 1 -10 -4 -10 -6 0 -11 5 -11 10 0 6 2
10 4 10 3 0 8 -4 11 -10z m722 -32 c-3 -7 -5 -2 -5 12 0 14 2 19 5 13 2 -7 2
-19 0 -25z m-3580 -65 c-2 -16 -4 -3 -4 27 0 30 2 43 4 28 2 -16 2 -40 0 -55z
m2884 60 c13 -16 12 -17 -3 -4 -10 7 -18 15 -18 17 0 8 8 3 21 -13z m790 -17
c1 -6 1 -17 0 -25 -2 -7 3 -10 9 -6 14 9 42 -14 33 -28 -3 -5 -1 -7 4 -4 20
12 188 -149 228 -217 26 -44 25 -76 -1 -76 -17 0 -18 -17 -1 -23 6 -3 -12 -3
-41 -1 -41 4 -53 2 -58 -10 -3 -9 -10 -16 -15 -16 -25 0 -138 133 -143 168 -1
7 -11 23 -22 35 -10 12 -27 35 -37 52 -10 16 -16 22 -13 12 3 -11 2 -15 -4
-12 -6 3 -10 15 -10 26 0 10 -6 19 -12 20 -7 0 -3 4 10 9 13 6 22 18 22 31 0
16 5 20 18 17 13 -4 17 1 17 18 -1 12 -7 29 -14 38 -10 12 -9 14 8 9 12 -3 22
-10 22 -17z m239 14 c0 -5 -5 -10 -11 -10 -5 0 -7 5 -4 10 3 6 8 10 11 10 2 0
4 -4 4 -10z m-4713 -92 c-2 -18 -4 -4 -4 32 0 36 2 50 4 33 2 -18 2 -48 0 -65z
m4656 51 c7 -24 5 -24 -22 5 -22 23 -22 24 -3 19 11 -2 22 -13 25 -24z m-286
-26 c-3 -10 -5 -2 -5 17 0 19 2 27 5 18 2 -10 2 -26 0 -35z m-4509 -98 l-1
-80 -7 60 c-4 33 -8 80 -8 105 0 37 1 40 8 20 4 -14 8 -61 8 -105z m8852 110
c0 -2 -9 -9 -20 -15 -16 -9 -20 -8 -20 5 0 8 9 15 20 15 11 0 20 -2 20 -5z
m-1875 -15 c3 -5 1 -10 -4 -10 -6 0 -11 5 -11 10 0 6 2 10 4 10 3 0 8 -4 11
-10z m-2088 -30 c-14 -11 -29 -20 -33 -20 -13 0 31 39 45 39 7 1 2 -8 -12 -19z
m-3940 -77 c-3 -10 -5 -2 -5 17 0 19 2 27 5 18 2 -10 2 -26 0 -35z m5968 17
c-4 -6 -1 -17 5 -25 14 -17 5 -50 -10 -40 -5 3 -10 -3 -10 -14 0 -12 -4 -21
-8 -21 -16 0 -9 95 8 102 21 9 22 9 15 -2z m-1985 -16 c0 -8 -4 -12 -10 -9 -5
3 -10 10 -10 16 0 5 5 9 10 9 6 0 10 -7 10 -16z m-5688 -29 c2 -19 0 -35 -4
-35 -4 0 -8 16 -8 35 0 19 2 35 4 35 2 0 6 -16 8 -35z m5259 -2 c-12 -20 -14
-14 -5 12 4 9 9 14 11 11 3 -2 0 -13 -6 -23z m-3542 -83 c0 -29 -2 -31 -9 -15
-5 11 -9 34 -9 50 -1 23 2 26 9 15 5 -8 9 -31 9 -50z m-1567 -99 c8 11 9 10 5
-3 -3 -9 -9 -67 -13 -129 -5 -84 -4 -110 4 -105 7 4 12 16 12 26 0 10 5 22 10
25 7 4 10 -15 8 -57 -2 -35 1 -74 6 -87 7 -20 6 -23 -8 -18 -10 4 -19 1 -22
-8 -9 -22 -22 -18 -27 8 -2 12 -5 3 -6 -20 0 -24 -6 -43 -11 -43 -7 0 -10 39
-10 103 0 56 -4 143 -10 192 -12 115 -13 175 0 175 6 0 10 -7 10 -15 0 -8 5
-15 10 -15 6 0 11 28 11 63 l2 62 10 -84 c6 -59 12 -80 19 -70z m5115 117 c-3
-7 -5 -2 -5 12 0 14 2 19 5 13 2 -7 2 -19 0 -25z m2360 -20 c-3 -8 -6 -5 -6 6
-1 11 2 17 5 13 3 -3 4 -12 1 -19z m-2400 -25 c-3 -10 -5 -4 -5 12 0 17 2 24
5 18 2 -7 2 -21 0 -30z m-4327 -13 c0 -5 -4 -10 -10 -10 -5 0 -10 5 -10 10 0
6 5 10 10 10 6 0 10 -4 10 -10z m6740 -3 c0 -7 -6 -22 -14 -32 -8 -11 -12 -24
-10 -30 3 -6 0 -22 -5 -36 -10 -24 -10 -24 -10 5 -1 36 19 106 31 106 4 0 8
-6 8 -13z m-5917 -50 c3 -22 2 -35 -4 -32 -5 4 -9 22 -9 42 0 45 5 40 13 -10z
m3537 11 c0 -7 4 -19 9 -27 8 -13 12 -13 27 0 11 9 15 9 10 2 -4 -7 -3 -13 3
-13 5 0 16 -3 24 -6 10 -3 17 2 20 13 3 10 5 2 6 -17 1 -19 6 -88 11 -153 9
-112 4 -157 -18 -157 -4 0 -24 16 -44 35 -20 19 -40 35 -45 35 -4 0 -30 20
-56 45 -40 36 -47 48 -41 67 3 13 11 26 17 29 5 4 13 24 17 45 3 22 11 38 17
37 6 -1 13 16 17 37 6 36 26 57 26 28z m-4351 -197 l-1 -166 -13 115 c-8 63
-14 147 -14 185 0 64 1 68 14 51 12 -16 15 -54 14 -185z m-620 122 c-1 -53 -6
-49 -11 10 -2 20 0 37 4 37 4 0 8 -21 7 -47z m8088 -25 c-2 -13 -4 -5 -4 17
-1 22 1 32 4 23 2 -10 2 -28 0 -40z m-6647 -10 c-1 -28 -2 -30 -11 -15 -6 10
-8 25 -5 33 9 24 16 16 16 -18z m5866 -36 c-12 -11 -18 7 -10 30 l8 23 4 -23
c2 -13 1 -26 -2 -30z m-2116 5 c0 -6 12 -24 27 -40 16 -15 21 -26 12 -22 -10
4 -16 0 -16 -10 0 -11 6 -13 21 -9 17 6 19 4 9 -7 -8 -10 -9 -20 -2 -29 7 -12
11 -13 18 -2 6 10 12 4 22 -20 8 -18 13 -36 11 -40 -1 -5 2 -8 7 -8 8 0 137
-188 147 -214 3 -7 -28 -11 -88 -12 -87 -1 -93 1 -115 25 -12 14 -29 40 -38
58 -21 43 -36 198 -23 235 8 21 7 33 -1 41 -14 14 -15 81 -1 72 6 -3 10 -11
10 -18z m-3619 -77 c0 -40 3 -50 9 -35 6 15 9 7 9 -30 l0 -50 -15 30 c-12 26
-14 27 -9 5 2 -14 5 -38 6 -55 0 -26 2 -27 9 -10 6 14 9 -3 10 -55 1 -79 11
-122 24 -102 3 6 13 9 21 5 8 -3 15 0 15 6 0 21 25 0 26 -23 1 -16 -3 -23 -14
-22 -11 1 -17 -9 -19 -28 -3 -37 -12 -46 -20 -18 -8 31 -20 28 -40 -10 l-17
-33 -7 45 c-3 25 -3 54 1 65 4 11 6 28 4 38 -1 10 -5 95 -9 190 -4 120 -3 167
4 157 6 -8 11 -40 12 -70z m-1685 33 c-10 -10 -19 5 -10 18 6 11 8 11 12 0 2
-7 1 -15 -2 -18z m9074 -33 c0 -5 -2 -10 -4 -10 -3 0 -8 5 -11 10 -3 6 -1 10
4 10 6 0 11 -4 11 -10z m-8093 -42 c-3 -8 -6 -5 -6 6 -1 11 2 17 5 13 3 -3 4
-12 1 -19z m8093 -48 l0 -40 -40 0 c-29 0 -40 4 -40 15 0 8 4 15 8 15 5 0 14
11 20 25 7 15 20 25 32 25 17 0 20 -7 20 -40z m-7353 -27 c-3 -10 -5 -4 -5 12
0 17 2 24 5 18 2 -7 2 -21 0 -30z m-980 -125 c-3 -7 -5 -2 -5 12 0 14 2 19 5
13 2 -7 2 -19 0 -25z m100 0 c-3 -8 -6 -5 -6 6 -1 11 2 17 5 13 3 -3 4 -12 1
-19z m-140 -105 c-2 -16 -4 -3 -4 27 0 30 2 43 4 28 2 -16 2 -40 0 -55z m2777
36 c-8 -13 -24 -1 -24 18 0 13 3 13 15 3 8 -7 12 -16 9 -21z m-2626 -41 c2
-35 1 -61 -1 -58 -9 10 -18 120 -10 120 5 0 10 -28 11 -62z m7832 58 c0 -3 -4
-8 -10 -11 -5 -3 -10 -1 -10 4 0 6 5 11 10 11 6 0 10 -2 10 -4z m-7220 -90 c0
-2 -7 -6 -15 -10 -8 -3 -15 -1 -15 4 0 6 7 10 15 10 8 0 15 -2 15 -4z m250
-47 c-6 -10 -15 -19 -20 -19 -6 0 -10 -12 -9 -27 0 -25 1 -26 9 -8 7 17 9 14
9 -14 1 -33 1 -34 -19 -16 -26 24 -25 63 3 90 26 25 42 22 27 -6z m-133 -57
c-2 -15 -4 -2 -4 28 0 30 2 43 4 28 2 -16 2 -40 0 -56z m-1510 26 c-3 -7 -5
-2 -5 12 0 14 2 19 5 13 2 -7 2 -19 0 -25z m790 -95 c-3 -10 -5 -4 -5 12 0 17
2 24 5 18 2 -7 2 -21 0 -30z m5828 28 c3 -5 1 -12 -5 -16 -5 -3 -10 1 -10 9 0
18 6 21 15 7z m-5105 -16 c0 -8 -4 -15 -10 -15 -5 0 -10 7 -10 15 0 8 5 15 10
15 6 0 10 -7 10 -15z m5090 -19 c0 -3 -4 -8 -10 -11 -5 -3 -10 -1 -10 4 0 6 5
11 10 11 6 0 10 -2 10 -4z"/>
<path d="M2720 9996 c0 -8 4 -17 9 -20 5 -4 7 3 4 14 -6 23 -13 26 -13 6z"/>
<path d="M4710 8904 c0 -8 5 -12 10 -9 6 3 10 10 10 16 0 5 -4 9 -10 9 -5 0
-10 -7 -10 -16z"/>
<path d="M4812 8860 c0 -14 2 -19 5 -12 2 6 2 18 0 25 -3 6 -5 1 -5 -13z"/>
<path d="M4821 8804 c0 -11 3 -14 6 -6 3 7 2 16 -1 19 -3 4 -6 -2 -5 -13z"/>
<path d="M4822 8675 c0 -16 2 -22 5 -12 2 9 2 23 0 30 -3 6 -5 -1 -5 -18z"/>
<path d="M4692 8504 c-7 -8 -8 -14 -3 -14 10 0 25 19 20 25 -2 1 -10 -3 -17
-11z"/>
<path d="M4532 8250 c0 -14 2 -19 5 -12 2 6 2 18 0 25 -3 6 -5 1 -5 -13z"/>
<path d="M4816 8222 c-3 -6 -1 -14 5 -17 14 -9 20 -2 10 14 -6 8 -11 9 -15 3z"/>
<path d="M4516 8194 c-4 -14 -5 -28 -3 -31 3 -2 8 8 11 23 4 14 5 28 3 31 -3
2 -8 -8 -11 -23z"/>
<path d="M4545 7930 c-3 -5 -1 -10 4 -10 6 0 11 5 11 10 0 6 -2 10 -4 10 -3 0
-8 -4 -11 -10z"/>
<path d="M4198 7693 c6 -2 18 -2 25 0 6 3 1 5 -13 5 -14 0 -19 -2 -12 -5z"/>
<path d="M4128 7683 c12 -2 30 -2 40 0 9 3 -1 5 -23 4 -22 0 -30 -2 -17 -4z"/>
<path d="M4141 7374 c0 -11 3 -14 6 -6 3 7 2 16 -1 19 -3 4 -6 -2 -5 -13z"/>
<path d="M4141 7298 c0 -10 -5 -18 -10 -18 -12 0 -21 -63 -10 -74 8 -9 14 23
10 48 -1 5 3 12 9 16 7 4 10 16 7 26 -4 17 -5 17 -6 2z"/>
<path d="M8030 7492 c45 -22 85 -95 101 -183 10 -57 8 -336 -3 -404 -2 -12 3
-20 12 -20 23 0 31 75 28 270 -3 169 -5 183 -29 235 -35 74 -79 120 -116 120
l-28 0 35 -18z"/>
<path d="M7871 7424 c-12 -15 -21 -31 -21 -37 0 -12 -1 -13 29 31 27 38 21 43
-8 6z"/>
<path d="M7822 7265 c0 -16 2 -22 5 -12 2 9 2 23 0 30 -3 6 -5 -1 -5 -18z"/>
<path d="M6663 5205 c0 -27 2 -38 4 -22 2 15 2 37 0 50 -2 12 -4 0 -4 -28z"/>
<path d="M6570 4560 c-9 -6 -10 -10 -3 -10 6 0 15 5 18 10 8 12 4 12 -15 0z"/>
<path d="M6580 4341 c0 -5 23 -24 52 -41 28 -18 58 -38 65 -46 8 -8 46 -32 84
-55 38 -23 72 -45 75 -50 3 -5 18 -9 35 -9 37 0 38 18 2 59 -25 28 -28 29 -45
14 -14 -13 -20 -13 -33 -3 -8 7 -15 22 -15 35 0 28 -10 38 -26 24 -10 -8 -23
-4 -53 20 -21 17 -47 31 -58 31 -11 0 -28 7 -39 15 -22 16 -44 19 -44 6z"/>
<path d="M7246 6523 c-3 -4 -6 -14 -6 -23 0 -13 10 -17 45 -18 44 0 66 12 49
28 -12 10 -81 20 -88 13z"/>
<path d="M7854 6279 c-91 -12 -145 -59 -164 -141 -17 -76 -12 -247 9 -304 45
-123 123 -195 220 -202 132 -10 208 45 254 182 29 86 17 257 -23 336 -52 100
-161 148 -296 129z m190 -83 c56 -33 83 -94 92 -208 11 -136 -24 -226 -104
-275 -70 -43 -170 -20 -229 52 -79 95 -85 326 -11 411 17 19 44 38 62 44 52
16 141 5 190 -24z"/>
<path d="M2935 6190 c-4 -6 7 -10 25 -10 18 0 29 4 25 10 -3 6 -15 10 -25 10
-10 0 -22 -4 -25 -10z"/>
<path d="M2700 6033 c-8 -2 -22 -7 -30 -9 -29 -10 16 -24 85 -27 70 -3 79 1
69 27 -5 12 -19 16 -58 15 -28 0 -58 -3 -66 -6z"/>
<path d="M3688 4593 c7 -3 16 -2 19 1 4 3 -2 6 -13 5 -11 0 -14 -3 -6 -6z"/>
<path d="M3646 4525 c-16 -24 -16 -25 9 -25 20 0 25 5 25 25 0 14 -4 25 -9 25
-5 0 -16 -11 -25 -25z"/>
<path d="M3110 4535 c0 -8 4 -15 10 -15 5 0 7 7 4 15 -4 8 -8 15 -10 15 -2 0
-4 -7 -4 -15z"/>
<path d="M3085 4520 c3 -5 8 -10 11 -10 2 0 4 5 4 10 0 6 -5 10 -11 10 -5 0
-7 -4 -4 -10z"/>
<path d="M6450 3940 c8 -5 20 -10 25 -10 6 0 3 5 -5 10 -8 5 -19 10 -25 10 -5
0 -3 -5 5 -10z"/>
<path d="M1520 3875 c0 -5 5 -17 10 -25 5 -8 10 -10 10 -5 0 6 -5 17 -10 25
-5 8 -10 11 -10 5z"/>
<path d="M6631 3664 c0 -11 3 -14 6 -6 3 7 2 16 -1 19 -3 4 -6 -2 -5 -13z"/>
<path d="M1294 3045 c8 -8 18 -15 22 -15 3 0 1 7 -6 15 -7 8 -17 15 -22 15 -5
0 -3 -7 6 -15z"/>
<path d="M4770 3009 c0 -5 5 -7 10 -4 6 3 10 8 10 11 0 2 -4 4 -10 4 -5 0 -10
-5 -10 -11z"/>
<path d="M5875 2881 c-22 -11 -37 -20 -34 -20 10 -1 79 29 79 34 0 7 0 7 -45
-14z"/>
<path d="M7058 2863 c18 -2 45 -2 60 0 15 2 0 4 -33 4 -33 0 -45 -2 -27 -4z"/>
<path d="M6635 2850 c-4 -7 2 -22 14 -34 l22 -21 -3 29 c-3 31 -21 45 -33 26z"/>
<path d="M6365 2842 c-11 -2 -27 -13 -36 -25 -14 -17 -26 -20 -67 -18 -41 1
-53 -2 -61 -17 -9 -17 -80 -45 -136 -54 -12 -2 -21 -12 -23 -26 -4 -24 1 -26
26 -13 9 4 36 11 60 14 39 5 46 2 72 -26 31 -35 106 -84 82 -54 -8 9 -11 21
-7 26 3 6 -2 22 -11 36 -22 34 -12 53 33 60 57 10 103 25 103 35 0 5 12 2 28
-6 36 -19 49 -18 62 6 6 11 16 20 23 20 7 0 18 4 26 9 22 14 -4 41 -38 41 -25
-1 -26 -1 -6 -16 19 -15 18 -16 -12 -9 -24 5 -37 2 -49 -9 -8 -9 -24 -16 -33
-16 -10 0 -24 -7 -31 -15 -14 -16 -50 -21 -50 -6 0 15 21 25 64 31 22 3 41 10
43 16 4 13 -31 22 -62 16z"/>
<path d="M6590 2819 c0 -6 14 -27 30 -46 35 -40 42 -18 9 28 -21 30 -39 38
-39 18z"/>
<path d="M7070 2668 c0 -4 18 -11 40 -14 35 -6 45 -14 74 -58 19 -28 41 -69
50 -90 15 -37 17 -38 34 -22 10 9 26 16 35 16 9 0 28 11 43 23 l27 24 -19 39
c-10 21 -37 51 -59 65 -37 25 -47 27 -132 26 -51 -1 -93 -5 -93 -9z"/>
<path d="M6312 2614 c-10 -11 -8 -15 7 -24 23 -12 61 -13 61 -2 0 4 -13 14
-28 23 -23 13 -30 13 -40 3z"/>
<path d="M6496 2602 c-4 -13 -5 -26 -2 -29 10 -11 18 4 14 29 l-4 23 -8 -23z"/>
<path d="M5239 2487 c-90 -49 -136 -80 -104 -70 11 3 31 14 45 23 14 10 45 24
69 31 l43 13 34 -39 c49 -58 38 -87 -53 -131 -47 -24 -62 -26 -121 -21 -68 5
-152 32 -152 47 0 5 -13 2 -30 -6 -16 -9 -30 -19 -30 -23 0 -4 43 -18 95 -31
125 -29 206 -25 264 13 53 35 70 63 78 124 6 57 -16 113 -45 113 -9 0 -51 -19
-93 -43z"/>
<path d="M5640 2519 c0 -5 5 -7 10 -4 6 3 10 8 10 11 0 2 -4 4 -10 4 -5 0 -10
-5 -10 -11z"/>
<path d="M5556 2497 c-19 -14 -19 -48 0 -54 6 -2 22 7 35 21 12 13 29 22 36
19 7 -3 13 -1 13 5 0 23 -57 29 -84 9z"/>
<path d="M5623 2443 c-14 -3 -23 -12 -23 -23 0 -10 -8 -21 -17 -23 -16 -4 -16
-5 -1 -6 9 0 23 6 32 14 17 17 49 19 77 5 11 -6 19 -7 19 -2 0 11 -45 43 -57
41 -4 -1 -18 -4 -30 -6z"/>
<path d="M3790 2830 c0 -5 5 -10 11 -10 5 0 7 5 4 10 -3 6 -8 10 -11 10 -2 0
-4 -4 -4 -10z"/>
<path d="M3120 2495 c0 -9 7 -32 15 -51 8 -20 13 -39 11 -43 -3 -4 0 -13 5
-21 8 -11 9 -1 5 33 -4 30 -2 46 4 42 14 -9 12 17 -4 38 -16 21 -36 22 -36 2z"/>
<path d="M3170 2420 c0 -5 5 -10 10 -10 6 0 10 5 10 10 0 6 -4 10 -10 10 -5 0
-10 -4 -10 -10z"/>
<path d="M677 1833 c-11 -10 -8 -61 3 -68 6 -4 10 10 10 34 0 42 -2 46 -13 34z"/>
<path d="M732 1695 c0 -16 2 -22 5 -12 2 9 2 23 0 30 -3 6 -5 -1 -5 -18z"/>
<path d="M8675 1810 c-4 -6 -15 -8 -25 -5 -10 3 -21 1 -25 -5 -4 -6 6 -10 24
-10 28 0 49 15 38 26 -3 3 -8 0 -12 -6z"/>
<path d="M8710 1809 c0 -5 5 -7 10 -4 6 3 10 8 10 11 0 2 -4 4 -10 4 -5 0 -10
-5 -10 -11z"/>
<path d="M8555 1790 c-3 -5 1 -10 10 -10 9 0 13 5 10 10 -3 6 -8 10 -10 10 -2
0 -7 -4 -10 -10z"/>
<path d="M8690 1770 c0 -5 5 -10 10 -10 6 0 10 5 10 10 0 6 -4 10 -10 10 -5 0
-10 -4 -10 -10z"/>
<path d="M8512 1570 c0 -19 2 -27 5 -17 2 9 2 25 0 35 -3 9 -5 1 -5 -18z"/>
<path d="M8542 1540 c0 -14 2 -19 5 -12 2 6 2 18 0 25 -3 6 -5 1 -5 -13z"/>
<path d="M8778 1403 c7 -3 16 -2 19 1 4 3 -2 6 -13 5 -11 0 -14 -3 -6 -6z"/>
<path d="M8684 1375 c-10 -8 -14 -14 -9 -14 6 0 19 6 29 14 11 8 15 15 10 15
-6 0 -19 -7 -30 -15z"/>
<path d="M8432 1590 c0 -19 2 -27 5 -17 2 9 2 25 0 35 -3 9 -5 1 -5 -18z"/>
<path d="M5033 1028 c-42 -11 -63 -43 -63 -96 0 -53 16 -61 73 -36 66 28 78
42 75 88 -2 33 -7 41 -28 46 -14 4 -39 3 -57 -2z"/>
<path d="M4250 1540 c0 -7 6 -10 14 -7 9 4 17 -1 20 -11 3 -12 4 -12 3 3 -2
21 -37 35 -37 15z"/>
<path d="M158 553 c7 -3 16 -2 19 1 4 3 -2 6 -13 5 -11 0 -14 -3 -6 -6z"/>
<path d="M921 744 c0 -11 3 -14 6 -6 3 7 2 16 -1 19 -3 4 -6 -2 -5 -13z"/>
<path d="M5602 415 c-14 -31 -15 -35 -3 -35 8 0 23 51 17 58 -2 1 -8 -9 -14
-23z"/>
<path d="M3984 10045 c-4 -8 -12 -15 -20 -15 -15 0 -18 -18 -8 -44 4 -11 13
-14 31 -10 19 5 24 3 21 -7 -2 -8 -22 -16 -44 -19 -38 -5 -38 -6 -16 -18 18
-11 22 -19 17 -41 -6 -28 18 -59 59 -74 15 -6 70 15 86 34 3 3 13 9 24 12 13
5 17 14 13 29 -4 12 -1 28 4 35 14 16 3 33 -21 33 -26 0 -31 24 -8 39 19 12
19 13 3 31 -14 15 -22 17 -38 9 -13 -8 -26 -8 -41 -1 -42 20 -57 22 -62 7z"/>
<path d="M2935 9790 c-3 -5 -1 -10 4 -10 6 0 11 5 11 10 0 6 -2 10 -4 10 -3 0
-8 -4 -11 -10z"/>
<path d="M4030 9775 c0 -8 5 -15 10 -15 6 0 10 7 10 15 0 8 -4 15 -10 15 -5 0
-10 -7 -10 -15z"/>
<path d="M3931 9741 c-17 -11 -6 -31 18 -31 21 0 44 23 34 33 -9 10 -35 8 -52
-2z"/>
<path d="M1068 9588 c8 -8 17 -8 34 0 22 10 21 11 -11 11 -27 1 -32 -2 -23
-11z"/>
<path d="M1083 9283 c9 -2 23 -2 30 0 6 3 -1 5 -18 5 -16 0 -22 -2 -12 -5z"/>
<path d="M1018 8823 c-18 -5 -40 -60 -40 -100 0 -13 -4 -26 -9 -29 -5 -3 -9
-16 -9 -30 0 -21 4 -24 40 -24 61 0 50 -28 -22 -56 -10 -3 -18 -15 -18 -25 0
-21 -19 -59 -35 -72 -5 -5 0 -5 13 -2 21 6 22 4 22 -47 0 -55 5 -62 63 -84 9
-3 17 -13 17 -20 0 -29 29 -12 44 26 21 53 21 188 1 238 -10 24 -12 38 -5 40
15 5 12 69 -4 105 -8 18 -17 44 -20 60 -4 15 -10 26 -14 26 -4 -1 -15 -3 -24
-6z"/>
<path d="M4058 8633 c7 -3 16 -2 19 1 4 3 -2 6 -13 5 -11 0 -14 -3 -6 -6z"/>
<path d="M36 8335 c-3 -9 -5 -53 -4 -98 l1 -82 7 95 c7 100 6 111 -4 85z"/>
<path d="M33 7920 c0 -47 2 -66 4 -42 2 23 2 61 0 85 -2 23 -4 4 -4 -43z"/>
<path d="M111 7714 c0 -11 3 -14 6 -6 3 7 2 16 -1 19 -3 4 -6 -2 -5 -13z"/>
<path d="M250 7435 l0 -75 35 0 36 0 -3 71 -3 72 -32 3 -33 4 0 -75z"/>
<path d="M53 7455 c0 -27 2 -38 4 -22 2 15 2 37 0 50 -2 12 -4 0 -4 -28z"/>
<path d="M8700 7490 c0 -5 5 -10 11 -10 5 0 7 5 4 10 -3 6 -8 10 -11 10 -2 0
-4 -4 -4 -10z"/>
<path d="M141 7474 c0 -11 3 -14 6 -6 3 7 2 16 -1 19 -3 4 -6 -2 -5 -13z"/>
<path d="M8660 7470 c0 -5 5 -10 10 -10 6 0 10 -5 10 -11 0 -5 -6 -7 -12 -3
-9 5 -8 2 1 -9 18 -22 25 -15 17 18 -6 24 -26 36 -26 15z"/>
<path d="M8605 7290 c3 -5 8 -10 11 -10 2 0 4 5 4 10 0 6 -5 10 -11 10 -5 0
-7 -4 -4 -10z"/>
<path d="M8943 6696 c-13 -13 -23 -31 -23 -39 0 -9 -4 -19 -10 -22 -19 -12
-10 -22 20 -22 34 0 47 27 36 71 -4 15 -1 26 7 29 6 3 8 6 2 6 -5 0 -20 -10
-32 -23z"/>
<path d="M8870 6541 c0 -35 9 -61 21 -61 16 0 10 77 -6 84 -11 4 -15 -2 -15
-23z"/>
<path d="M8940 6510 c0 -16 5 -30 10 -30 6 0 10 14 10 30 0 17 -4 30 -10 30
-5 0 -10 -13 -10 -30z"/>
<path d="M9493 4805 c0 -44 2 -61 4 -37 2 23 2 59 0 80 -2 20 -4 1 -4 -43z"/>
<path d="M9523 4840 c0 -25 2 -35 4 -22 2 12 2 32 0 45 -2 12 -4 2 -4 -23z"/>
<path d="M9493 4640 c0 -47 2 -66 4 -42 2 23 2 61 0 85 -2 23 -4 4 -4 -43z"/>
<path d="M9924 3740 c0 -58 1 -81 3 -52 2 28 2 76 0 105 -2 28 -3 5 -3 -53z"/>
<path d="M1041 1670 c0 -33 1 -34 10 -11 6 16 6 28 -1 35 -7 7 -10 -1 -9 -24z"/>
<path d="M7506 1687 c-19 -14 -19 -15 2 -26 12 -6 21 -15 20 -19 -1 -4 2 -15
6 -24 7 -15 10 -15 22 -3 8 7 14 22 14 31 0 14 -3 15 -12 6 -10 -10 -15 -6
-23 18 -9 28 -12 29 -29 17z"/>
<path d="M1112 1230 c0 -14 2 -19 5 -12 2 6 2 18 0 25 -3 6 -5 1 -5 -13z"/>
<path d="M6300 1060 c0 -5 5 -10 10 -10 6 0 10 5 10 10 0 6 -4 10 -10 10 -5 0
-10 -4 -10 -10z"/>
<path d="M6197 929 c7 -7 15 -10 18 -7 3 3 -2 9 -12 12 -14 6 -15 5 -6 -5z"/>
<path d="M5985 800 c3 -5 8 -10 11 -10 2 0 4 5 4 10 0 6 -5 10 -11 10 -5 0 -7
-4 -4 -10z"/>
<path d="M4 605 c0 -49 1 -71 3 -48 2 23 2 64 0 90 -2 26 -3 8 -3 -42z"/>
<path d="M7097 593 c7 -61 22 -91 23 -47 0 44 -11 94 -21 94 -5 0 -6 -21 -2
-47z"/>
<path d="M3750 160 c0 -5 5 -10 11 -10 5 0 7 5 4 10 -3 6 -8 10 -11 10 -2 0
-4 -4 -4 -10z"/>
<path d="M3680 109 c0 -28 -6 -46 -17 -55 -17 -12 -17 -14 4 -33 27 -25 119
-31 110 -7 -3 7 -1 18 3 22 14 14 0 53 -20 59 -10 3 -25 17 -34 30 -26 39 -46
32 -46 -16z"/>
<path d="M1550 101 c0 -6 4 -13 10 -16 6 -3 7 1 4 9 -7 18 -14 21 -14 7z"/>
<path d="M141 30 c0 -33 1 -34 10 -11 6 16 6 28 -1 35 -7 7 -10 -1 -9 -24z"/>
<path d="M25 27 c-4 -10 -5 -21 -1 -24 10 -10 18 4 13 24 -4 17 -4 17 -12 0z"/>
<path d="M8200 10 c0 -5 7 -10 15 -10 8 0 15 5 15 10 0 6 -7 10 -15 10 -8 0
-15 -4 -15 -10z"/>
<path d="M8280 10 c0 -5 12 -10 26 -10 14 0 23 4 19 10 -3 6 -15 10 -26 10
-10 0 -19 -4 -19 -10z"/>
</g>
</svg>
